<svg width="20" height="20" viewBox="0 0 20 20" fill="none" xmlns="http://www.w3.org/2000/svg">
<rect x="1.6" y="1.6" width="16.8" height="16.8" rx="8.4" stroke="#11C468" stroke-width="0.8"/>
<path d="M8.25004 13.396C8.25004 13.318 8.23504 13.279 8.20504 13.279L7.99804 13.378C7.99804 13.336 7.97404 13.306 7.92604 13.288L7.85404 13.279C7.80604 13.279 7.74604 13.3 7.67404 13.342C7.66204 13.312 7.64704 13.282 7.62904 13.252C7.61104 13.222 7.59604 13.195 7.58404 13.171C7.50604 13.021 7.42804 12.856 7.35004 12.676C7.27804 12.49 7.20904 12.313 7.14304 12.145C7.08304 11.977 7.03504 11.845 6.99904 11.749C6.97504 11.671 6.94804 11.554 6.91804 11.398C6.88804 11.242 6.85804 11.044 6.82804 10.804C6.89404 10.846 6.94504 10.867 6.98104 10.867C7.02304 10.867 7.06204 10.804 7.09804 10.678C7.11604 10.702 7.14904 10.714 7.19704 10.714C7.23304 10.714 7.26004 10.702 7.27804 10.678L7.42204 10.462L7.58404 10.516H7.59304C7.60504 10.516 7.61704 10.51 7.62904 10.498C7.64104 10.486 7.65904 10.474 7.68304 10.462C7.73104 10.432 7.76704 10.417 7.79104 10.417L7.81804 10.426C7.96804 10.498 8.06404 10.63 8.10604 10.822C8.21404 11.278 8.32204 11.506 8.43004 11.506C8.53804 11.506 8.66404 11.392 8.80804 11.164C8.88004 11.05 8.95204 10.918 9.02404 10.768C9.10204 10.618 9.18004 10.45 9.25804 10.264C9.27004 10.336 9.28204 10.372 9.29404 10.372C9.32404 10.372 9.37504 10.297 9.44704 10.147C9.52504 9.997 9.64804 9.79 9.81604 9.526C9.91204 9.364 10.032 9.181 10.176 8.977C10.326 8.773 10.485 8.563 10.653 8.347C10.821 8.131 10.983 7.927 11.139 7.735C11.301 7.543 11.445 7.378 11.571 7.24C11.697 7.102 11.79 7.012 11.85 6.97C12.078 6.814 12.258 6.664 12.39 6.52C12.384 6.562 12.375 6.601 12.363 6.637C12.357 6.667 12.354 6.688 12.354 6.7C12.354 6.724 12.366 6.736 12.39 6.736L12.642 6.61V6.646C12.642 6.694 12.654 6.718 12.678 6.718C12.696 6.718 12.732 6.691 12.786 6.637C12.84 6.583 12.87 6.544 12.876 6.52L12.858 6.646L13.164 6.466L13.092 6.628C13.188 6.562 13.257 6.529 13.299 6.529C13.323 6.529 13.341 6.544 13.353 6.574C13.365 6.598 13.371 6.622 13.371 6.646C13.371 6.682 13.356 6.724 13.326 6.772C13.296 6.82 13.257 6.877 13.209 6.943C13.173 6.991 13.113 7.063 13.029 7.159C12.951 7.249 12.831 7.384 12.669 7.564C12.507 7.738 12.291 7.981 12.021 8.293C11.949 8.371 11.838 8.509 11.688 8.707C11.538 8.899 11.367 9.124 11.175 9.382C10.989 9.634 10.803 9.889 10.617 10.147C10.431 10.405 10.266 10.639 10.122 10.849C9.97804 11.053 9.87604 11.206 9.81604 11.308L9.25804 12.253C9.13804 12.457 9.03904 12.625 8.96104 12.757C8.88304 12.883 8.82304 12.97 8.78104 13.018C8.69104 13.126 8.59204 13.222 8.48404 13.306L8.40304 13.261L8.33104 13.306L8.25004 13.396Z" fill="#11C468"/>
</svg>
