<svg width="20" height="20" viewBox="0 0 20 20" fill="none" xmlns="http://www.w3.org/2000/svg">
<path d="M12.4997 1.66669H4.99967C4.55765 1.66669 4.13372 1.84228 3.82116 2.15484C3.5086 2.4674 3.33301 2.89133 3.33301 3.33335V16.6667C3.33301 17.1087 3.5086 17.5326 3.82116 17.8452C4.13372 18.1578 4.55765 18.3334 4.99967 18.3334H14.9997C15.4417 18.3334 15.8656 18.1578 16.1782 17.8452C16.4907 17.5326 16.6663 17.1087 16.6663 16.6667V5.83335L12.4997 1.66669Z" stroke="#03838C" stroke-width="1.66667" stroke-linecap="round" stroke-linejoin="round"/>
<path d="M11.667 1.66669V5.00002C11.667 5.44205 11.8426 5.86597 12.1551 6.17853C12.4677 6.49109 12.8916 6.66669 13.3337 6.66669H16.667" stroke="#03838C" stroke-width="1.66667" stroke-linecap="round" stroke-linejoin="round"/>
<path d="M8.33366 7.5H6.66699" stroke="#03838C" stroke-width="1.66667" stroke-linecap="round" stroke-linejoin="round"/>
<path d="M13.3337 10.8333H6.66699" stroke="#03838C" stroke-width="1.66667" stroke-linecap="round" stroke-linejoin="round"/>
<path d="M13.3337 14.1667H6.66699" stroke="#03838C" stroke-width="1.66667" stroke-linecap="round" stroke-linejoin="round"/>
</svg>
