<svg width="16" height="16" viewBox="0 0 16 16" fill="none" xmlns="http://www.w3.org/2000/svg">
<rect width="16" height="16" rx="8" fill="#6B7F7C"/>
<path d="M6.0666 11.2537C6.0666 11.1722 6.05092 11.1314 6.01957 11.1314L5.80323 11.2349C5.80323 11.191 5.77815 11.1596 5.72799 11.1408L5.65274 11.1314C5.60257 11.1314 5.53987 11.1534 5.46462 11.1973C5.45208 11.1659 5.4364 11.1346 5.41759 11.1032C5.39878 11.0719 5.3831 11.0436 5.37056 11.0186C5.28904 10.8618 5.20752 10.6893 5.12601 10.5012C5.05076 10.3068 4.97865 10.1219 4.90967 9.94628C4.84696 9.7707 4.7968 9.63275 4.75917 9.53242C4.73409 9.4509 4.70587 9.32862 4.67452 9.16559C4.64317 9.00255 4.61181 8.79562 4.58046 8.54479C4.64944 8.58869 4.70274 8.61063 4.74036 8.61063C4.78426 8.61063 4.82502 8.54479 4.86264 8.41311C4.88145 8.43819 4.91594 8.45073 4.96611 8.45073C5.00373 8.45073 5.03195 8.43819 5.05076 8.41311L5.20125 8.18737L5.37056 8.2438H5.37997C5.39251 8.2438 5.40505 8.23753 5.41759 8.22499C5.43013 8.21245 5.44894 8.19991 5.47403 8.18737C5.52419 8.15601 5.56182 8.14034 5.5869 8.14034L5.61512 8.14974C5.77188 8.22499 5.87221 8.36294 5.91611 8.5636C6.02898 9.04017 6.14185 9.27846 6.25472 9.27846C6.36759 9.27846 6.49927 9.15931 6.64977 8.92103C6.72502 8.80189 6.80026 8.66394 6.87551 8.50717C6.95703 8.3504 7.03855 8.17483 7.12007 7.98044C7.13261 8.05568 7.14515 8.09331 7.15769 8.09331C7.18904 8.09331 7.24234 8.01492 7.31759 7.85816C7.39911 7.70139 7.52766 7.48506 7.70324 7.20915C7.80357 7.03984 7.92898 6.84859 8.07947 6.63539C8.23624 6.42218 8.40241 6.20271 8.57799 5.97697C8.75357 5.75123 8.92287 5.53803 9.08591 5.33737C9.25522 5.13671 9.40571 4.96426 9.53739 4.82004C9.66908 4.67581 9.76627 4.58175 9.82898 4.53786C10.0673 4.37482 10.2554 4.21806 10.3933 4.06756C10.3871 4.11146 10.3777 4.15222 10.3651 4.18984C10.3588 4.22119 10.3557 4.24314 10.3557 4.25568C10.3557 4.28076 10.3683 4.29331 10.3933 4.29331L10.6567 4.16162V4.19925C10.6567 4.24941 10.6692 4.27449 10.6943 4.27449C10.7131 4.27449 10.7508 4.24628 10.8072 4.18984C10.8636 4.1334 10.895 4.09265 10.9013 4.06756L10.8824 4.19925L11.2022 4.01113L11.127 4.18043C11.2273 4.11146 11.2994 4.07697 11.3433 4.07697C11.3684 4.07697 11.3872 4.09265 11.3998 4.124C11.4123 4.14908 11.4186 4.17416 11.4186 4.19925C11.4186 4.23687 11.4029 4.28076 11.3716 4.33093C11.3402 4.38109 11.2994 4.44067 11.2493 4.50964C11.2117 4.55981 11.1489 4.63506 11.0612 4.73539C10.9796 4.82944 10.8542 4.97053 10.6849 5.15865C10.5156 5.3405 10.2899 5.59446 10.0077 5.92053C9.93244 6.00205 9.81644 6.14628 9.65967 6.35321C9.50291 6.55387 9.32419 6.78902 9.12353 7.05865C8.92914 7.32202 8.73475 7.58852 8.54036 7.85816C8.34597 8.1278 8.17353 8.37235 8.02304 8.59182C7.87254 8.80502 7.76594 8.96493 7.70324 9.07153L7.12007 10.0592C6.99465 10.2724 6.89119 10.4479 6.80967 10.5859C6.72815 10.7176 6.66545 10.8085 6.62155 10.8587C6.52749 10.9715 6.42403 11.0719 6.31116 11.1596L6.2265 11.1126L6.15125 11.1596L6.0666 11.2537Z" fill="white"/>
</svg>
