<svg width="16" height="16" viewBox="0 0 16 16" fill="none" xmlns="http://www.w3.org/2000/svg">
<rect width="16" height="16" rx="8" fill="#03838C"/>
<path d="M6.53229 11.5047C6.53229 11.4232 6.51661 11.3824 6.48526 11.3824L6.26892 11.4859C6.26892 11.442 6.24384 11.4106 6.19367 11.3918L6.11843 11.3824C6.06826 11.3824 6.00555 11.4044 5.93031 11.4482C5.91776 11.4169 5.90209 11.3855 5.88328 11.3542C5.86446 11.3228 5.84879 11.2946 5.83625 11.2695C5.75473 11.1128 5.67321 10.9403 5.59169 10.7522C5.51644 10.5578 5.44433 10.3728 5.37536 10.1973C5.31265 10.0217 5.26248 9.88372 5.22486 9.78339C5.19978 9.70188 5.17156 9.5796 5.14021 9.41656C5.10885 9.25353 5.0775 9.04659 5.04615 8.79577C5.11512 8.83966 5.16842 8.86161 5.20605 8.86161C5.24994 8.86161 5.2907 8.79577 5.32833 8.66409C5.34714 8.68917 5.38163 8.70171 5.43179 8.70171C5.46941 8.70171 5.49763 8.68917 5.51644 8.66409L5.66694 8.43834L5.83625 8.49478H5.84565C5.85819 8.49478 5.87074 8.48851 5.88328 8.47597C5.89582 8.46343 5.91463 8.45089 5.93971 8.43834C5.98988 8.40699 6.0275 8.39131 6.05258 8.39131L6.0808 8.40072C6.23757 8.47597 6.3379 8.61392 6.38179 8.81458C6.49466 9.29115 6.60753 9.52943 6.72041 9.52943C6.83328 9.52943 6.96496 9.41029 7.11546 9.17201C7.1907 9.05287 7.26595 8.91491 7.3412 8.75815C7.42272 8.60138 7.50423 8.4258 7.58575 8.23141C7.59829 8.30666 7.61084 8.34428 7.62338 8.34428C7.65473 8.34428 7.70803 8.2659 7.78328 8.10914C7.8648 7.95237 7.99334 7.73603 8.16892 7.46013C8.26925 7.29082 8.39466 7.09956 8.54516 6.88636C8.70192 6.67316 8.8681 6.45369 9.04367 6.22795C9.21925 6.0022 9.38856 5.789 9.5516 5.58834C9.7209 5.38768 9.8714 5.21524 10.0031 5.07102C10.1348 4.92679 10.232 4.83273 10.2947 4.78884C10.5329 4.6258 10.7211 4.46903 10.859 4.31854C10.8528 4.36243 10.8433 4.40319 10.8308 4.44082C10.8245 4.47217 10.8214 4.49412 10.8214 4.50666C10.8214 4.53174 10.8339 4.54428 10.859 4.54428L11.1224 4.4126V4.45022C11.1224 4.50039 11.1349 4.52547 11.16 4.52547C11.1788 4.52547 11.2164 4.49725 11.2729 4.44082C11.3293 4.38438 11.3607 4.34362 11.3669 4.31854L11.3481 4.45022L11.6679 4.2621L11.5927 4.43141C11.693 4.36243 11.7651 4.32795 11.809 4.32795C11.8341 4.32795 11.8529 4.34362 11.8655 4.37498C11.878 4.40006 11.8843 4.42514 11.8843 4.45022C11.8843 4.48785 11.8686 4.53174 11.8372 4.58191C11.8059 4.63207 11.7651 4.69164 11.715 4.76062C11.6773 4.81078 11.6146 4.88603 11.5268 4.98636C11.4453 5.08042 11.3199 5.22151 11.1506 5.40963C10.9813 5.59148 10.7556 5.84544 10.4734 6.17151C10.3981 6.25303 10.2821 6.39725 10.1254 6.60418C9.96859 6.80484 9.78988 7.03999 9.58922 7.30963C9.39483 7.573 9.20044 7.8395 9.00605 8.10914C8.81166 8.37877 8.63922 8.62333 8.48872 8.8428C8.33823 9.056 8.23163 9.2159 8.16892 9.3225L7.58575 10.3101C7.46034 10.5233 7.35687 10.6989 7.27536 10.8369C7.19384 10.9685 7.13113 11.0595 7.08724 11.1096C6.99318 11.2225 6.88971 11.3228 6.77684 11.4106L6.69219 11.3636L6.61694 11.4106L6.53229 11.5047Z" fill="white"/>
</svg>
