<svg width="52" height="52" viewBox="0 0 52 52" fill="none" xmlns="http://www.w3.org/2000/svg">
<rect width="52" height="52" rx="14" fill="#E6F4F1"/>
<rect x="0.5" y="0.5" width="51" height="51" rx="13.5" stroke="#0D8C7A" stroke-opacity="0.25"/>
<g clip-path="url(#clip0_461_1288)">
<path d="M38.5667 26.0003C38.5667 33.2075 32.5043 38.9946 25.1992 38.5422C18.9401 38.1544 13.8459 33.0601 13.4585 26.8011C13.0056 19.4959 18.7928 13.4336 26 13.4336C27.9135 13.4303 29.8022 13.8663 31.5207 14.708C31.9674 14.9273 32.1312 15.4837 31.8847 15.9162L31.8829 15.9192C31.7732 16.1111 31.5941 16.2538 31.3826 16.3179C31.171 16.3821 30.9429 16.3628 30.745 16.2641C29.0905 15.4495 27.199 15.053 25.2027 15.1955C19.9593 15.5695 15.6771 19.775 15.2104 25.011C14.6298 31.5279 19.8523 36.9978 26.2877 36.8297C31.7989 36.6858 36.3991 32.3152 36.8026 26.8171C36.9077 25.4372 36.746 24.05 36.3263 22.7312C36.2644 22.5354 36.2745 22.3238 36.3549 22.1348C36.4354 21.9458 36.5808 21.7919 36.7649 21.7007C37.2389 21.4637 37.82 21.7007 37.9808 22.2056C38.3702 23.4328 38.5681 24.7128 38.5667 26.0003Z" fill="#03838C"/>
<path d="M19.6778 22.7381L26.5305 32.0102C26.6486 32.1714 26.8051 32.3005 26.9858 32.3858C27.1666 32.471 27.3658 32.5097 27.5653 32.4982C27.7648 32.4867 27.9582 32.4255 28.128 32.3202C28.2978 32.2148 28.4385 32.0686 28.5373 31.8949L38.4398 14.7531C38.9555 13.8604 37.779 12.963 37.0774 13.7144L26.7606 24.7653L20.7746 21.452C19.9655 21.0044 19.1249 21.9898 19.6778 22.7381Z" fill="#03838C"/>
</g>
<defs>
<clipPath id="clip0_461_1288">
<rect width="26" height="26" fill="white" transform="translate(13 13)"/>
</clipPath>
</defs>
</svg>
