<svg width="110" height="110" viewBox="0 0 110 110" fill="none" xmlns="http://www.w3.org/2000/svg">
<rect x="20" y="20" width="70" height="70" rx="35" fill="#03838C"/>
<rect x="10" y="10" width="90" height="90" rx="45" stroke="#03838C" stroke-opacity="0.1" stroke-width="20"/>
<path d="M47.3439 70.4825C47.3439 70.1413 47.2783 69.9706 47.1471 69.9706L46.2414 70.4038C46.2414 70.22 46.1364 70.0888 45.9264 70.01L45.6114 69.9706C45.4014 69.9706 45.1389 70.0625 44.8239 70.2463C44.7714 70.115 44.7058 69.9838 44.6271 69.8525C44.5483 69.7213 44.4827 69.6031 44.4302 69.4981C44.0889 68.8419 43.7477 68.12 43.4064 67.3325C43.0914 66.5187 42.7896 65.7444 42.5008 65.0094C42.2383 64.2744 42.0283 63.6969 41.8708 63.2769C41.7658 62.9356 41.6477 62.4237 41.5164 61.7412C41.3852 61.0587 41.2539 60.1925 41.1227 59.1425C41.4114 59.3262 41.6346 59.4181 41.7921 59.4181C41.9758 59.4181 42.1464 59.1425 42.3039 58.5912C42.3827 58.6962 42.5271 58.7487 42.7371 58.7487C42.8946 58.7487 43.0127 58.6962 43.0914 58.5912L43.7214 57.6462L44.4302 57.8825H44.4696C44.5221 57.8825 44.5746 57.8562 44.6271 57.8037C44.6796 57.7512 44.7583 57.6987 44.8633 57.6462C45.0733 57.515 45.2308 57.4494 45.3358 57.4494L45.4539 57.4887C46.1102 57.8037 46.5302 58.3812 46.7139 59.2212C47.1864 61.2162 47.6589 62.2137 48.1314 62.2137C48.6039 62.2137 49.1552 61.715 49.7852 60.7175C50.1002 60.2187 50.4152 59.6412 50.7302 58.985C51.0714 58.3287 51.4127 57.5937 51.7539 56.78C51.8064 57.095 51.8589 57.2525 51.9114 57.2525C52.0427 57.2525 52.2658 56.9244 52.5808 56.2681C52.9221 55.6119 53.4602 54.7062 54.1952 53.5512C54.6152 52.8425 55.1402 52.0419 55.7702 51.1494C56.4264 50.2569 57.1221 49.3381 57.8571 48.3931C58.5921 47.4481 59.3008 46.5556 59.9833 45.7156C60.6921 44.8756 61.3221 44.1537 61.8733 43.55C62.4246 42.9462 62.8314 42.5525 63.0939 42.3687C64.0914 41.6862 64.8789 41.03 65.4564 40.4C65.4302 40.5837 65.3908 40.7544 65.3383 40.9119C65.3121 41.0431 65.2989 41.135 65.2989 41.1875C65.2989 41.2925 65.3514 41.345 65.4564 41.345L66.5589 40.7937V40.9512C66.5589 41.1612 66.6114 41.2662 66.7164 41.2662C66.7952 41.2662 66.9527 41.1481 67.1889 40.9119C67.4252 40.6756 67.5564 40.505 67.5827 40.4L67.5039 40.9512L68.8427 40.1637L68.5277 40.8725C68.9477 40.5837 69.2496 40.4394 69.4333 40.4394C69.5383 40.4394 69.6171 40.505 69.6696 40.6362C69.7221 40.7412 69.7483 40.8462 69.7483 40.9512C69.7483 41.1087 69.6827 41.2925 69.5514 41.5025C69.4202 41.7125 69.2496 41.9619 69.0396 42.2506C68.8821 42.4606 68.6196 42.7756 68.2521 43.1956C67.9108 43.5894 67.3858 44.18 66.6771 44.9675C65.9683 45.7287 65.0233 46.7919 63.8421 48.1569C63.5271 48.4981 63.0414 49.1019 62.3852 49.9681C61.7289 50.8081 60.9808 51.7925 60.1408 52.9212C59.3271 54.0237 58.5133 55.1394 57.6996 56.2681C56.8858 57.3969 56.1639 58.4206 55.5339 59.3394C54.9039 60.2319 54.4577 60.9012 54.1952 61.3475L51.7539 65.4819C51.2289 66.3744 50.7958 67.1094 50.4546 67.6869C50.1133 68.2381 49.8508 68.6187 49.6671 68.8288C49.2733 69.3013 48.8402 69.7213 48.3677 70.0888L48.0133 69.8919L47.6983 70.0888L47.3439 70.4825Z" fill="white"/>
</svg>
