<svg width="28" height="28" viewBox="0 0 28 28" fill="none" xmlns="http://www.w3.org/2000/svg">
<rect width="28" height="28" rx="7.53846" fill="#E6F4F1"/>
<rect x="0.269231" y="0.269231" width="27.4615" height="27.4615" rx="7.26923" stroke="#03838C" stroke-opacity="0.25" stroke-width="0.538462"/>
<path d="M17.55 11.666C18.5165 11.666 19.3 10.8825 19.3 9.91602C19.3 8.94952 18.5165 8.16602 17.55 8.16602C16.5836 8.16602 15.8 8.94952 15.8 9.91602C15.8 10.8825 16.5836 11.666 17.55 11.666Z" stroke="#03838C"/>
<path d="M10.55 15.75C11.5165 15.75 12.3 14.9665 12.3 14C12.3 13.0335 11.5165 12.25 10.55 12.25C9.58355 12.25 8.80005 13.0335 8.80005 14C8.80005 14.9665 9.58355 15.75 10.55 15.75Z" stroke="#03838C"/>
<path d="M17.55 19.832C18.5165 19.832 19.3 19.0485 19.3 18.082C19.3 17.1155 18.5165 16.332 17.55 16.332C16.5836 16.332 15.8 17.1155 15.8 18.082C15.8 19.0485 16.5836 19.832 17.55 19.832Z" stroke="#03838C"/>
<path d="M12.0608 14.8802L16.045 17.2019M16.0391 10.7969L12.0608 13.1185" stroke="#03838C" stroke-linecap="round"/>
</svg>
