<svg width="52" height="52" viewBox="0 0 52 52" fill="none" xmlns="http://www.w3.org/2000/svg">
<rect width="52" height="52" rx="14" fill="#E6F4F1"/>
<rect x="0.5" y="0.5" width="51" height="51" rx="13.5" stroke="#0D8C7A" stroke-opacity="0.25"/>
<path d="M30.8984 24.1719C30.8984 23.6109 30.4437 23.1562 29.8828 23.1562H19.4219C18.8609 23.1562 18.4062 23.6109 18.4062 24.1719C18.4062 24.7328 18.8609 25.1875 19.4219 25.1875H29.8828C30.4437 25.1875 30.8984 24.7328 30.8984 24.1719ZM19.4219 27.2188C18.8609 27.2188 18.4062 27.6734 18.4062 28.2344C18.4062 28.7953 18.8609 29.25 19.4219 29.25H25.7752C26.3361 29.25 26.7908 28.7953 26.7908 28.2344C26.7908 27.6734 26.3361 27.2188 25.7752 27.2188H19.4219Z" fill="#03838C"/>
<path d="M21.8088 36.9688H18.4121C17.2921 36.9688 16.3809 36.0575 16.3809 34.9375V17.0625C16.3809 15.9425 17.2921 15.0312 18.4121 15.0312H30.8987C32.0187 15.0312 32.9299 15.9425 32.9299 17.0625V23.3086C32.9299 23.8695 33.3846 24.3242 33.9455 24.3242C34.5065 24.3242 34.9612 23.8695 34.9612 23.3086V17.0625C34.9612 14.8224 33.1387 13 30.8987 13H18.4121C16.172 13 14.3496 14.8224 14.3496 17.0625V34.9375C14.3496 37.1776 16.172 39 18.4121 39H21.8088C22.3697 39 22.8244 38.5453 22.8244 37.9844C22.8244 37.4234 22.3697 36.9688 21.8088 36.9688Z" fill="#03838C"/>
<path d="M36.7599 27.7048C35.5719 26.5169 33.6389 26.5168 32.4517 27.704L26.8758 33.2676C26.7574 33.3858 26.67 33.5313 26.6214 33.6914L25.4071 37.6891C25.3542 37.8631 25.349 38.0481 25.3921 38.2248C25.4352 38.4015 25.5249 38.5634 25.6519 38.6936C25.7789 38.8237 25.9385 38.9174 26.1141 38.9648C26.2896 39.0122 26.4747 39.0116 26.65 38.9631L30.7493 37.8276C30.918 37.7808 31.0718 37.6913 31.1957 37.5676L36.7599 32.0138C37.9479 30.8258 37.9479 28.8929 36.7599 27.7048ZM29.9497 35.9413L27.8874 36.5126L28.4909 34.5256L32.2532 30.7716L33.6898 32.2082L29.9497 35.9413ZM35.3243 30.5769L35.1276 30.7733L33.6912 29.3369L33.8873 29.1412C34.2833 28.7452 34.9276 28.7452 35.3236 29.1412C35.7196 29.5372 35.7196 30.1815 35.3243 30.5769ZM29.8828 19.0938H19.4219C18.8609 19.0938 18.4062 19.5484 18.4062 20.1094C18.4062 20.6703 18.8609 21.125 19.4219 21.125H29.8828C30.4437 21.125 30.8984 20.6703 30.8984 20.1094C30.8984 19.5484 30.4437 19.0938 29.8828 19.0938Z" fill="#03838C"/>
</svg>
