<svg width="28" height="28" viewBox="0 0 28 28" fill="none" xmlns="http://www.w3.org/2000/svg">
<rect width="28" height="28" rx="14" fill="#03838C"/>
<path d="M18.2322 16.9035H9.76809V17.9324H18.2322V16.9035ZM17.8241 11.847L18.0607 13.9356L19.0827 13.8197L18.8468 11.7318L17.8241 11.847ZM9.93957 13.9356L10.1762 11.847L9.15352 11.7318L8.91757 13.8197L9.93957 13.9356ZM9.21731 15.6113C9.61857 15.1393 9.86892 14.555 9.93957 13.9356L8.91757 13.8197C8.87128 14.2344 8.70272 14.6259 8.43331 14.9446L9.21731 15.6113ZM18.0607 13.9356C18.1299 14.5534 18.3813 15.1367 18.783 15.6113L19.567 14.9446C19.2975 14.6259 19.129 14.2344 19.0827 13.8197L18.0607 13.9356ZM9.76809 16.9035C9.15969 16.9035 8.77353 16.1339 9.21731 15.6113L8.43331 14.9446C7.45932 16.09 8.22343 17.9324 9.76809 17.9324V16.9035ZM18.2322 17.9324C19.7769 17.9324 20.5403 16.0907 19.567 14.9446L18.783 15.6113C19.2275 16.1339 18.8406 16.9035 18.2322 16.9035V17.9324ZM18.8468 11.7318C18.5614 9.2179 16.4886 7.30078 14.0002 7.30078V8.32964C15.9413 8.32964 17.5957 9.82973 17.8241 11.847L18.8468 11.7318ZM10.1762 11.847C10.4046 9.82973 12.059 8.32964 14.0002 8.32964V7.30078C11.5117 7.30078 9.43886 9.2179 9.15352 11.7318L10.1762 11.847ZM16.5394 18.9701C16.5655 18.9064 16.5786 18.8381 16.5778 18.7692C16.577 18.7003 16.5624 18.6323 16.5349 18.5692C16.5073 18.5061 16.4673 18.4491 16.4174 18.4017C16.3674 18.3543 16.3084 18.3174 16.2439 18.2933C16.1794 18.2691 16.1107 18.2581 16.0419 18.261C15.973 18.2639 15.9055 18.2806 15.8432 18.3101C15.781 18.3396 15.7253 18.3812 15.6794 18.4326C15.6336 18.4841 15.5986 18.5441 15.5764 18.6094L16.5394 18.9701ZM12.4239 18.6094C12.4018 18.5441 12.3667 18.4841 12.3209 18.4326C12.275 18.3812 12.2193 18.3396 12.1571 18.3101C12.0948 18.2806 12.0273 18.2639 11.9584 18.261C11.8896 18.2581 11.8209 18.2691 11.7564 18.2933C11.6919 18.3174 11.6329 18.3543 11.5829 18.4017C11.533 18.4491 11.493 18.5061 11.4654 18.5692C11.4379 18.6323 11.4233 18.7003 11.4225 18.7692C11.4217 18.8381 11.4348 18.9064 11.4609 18.9701L12.4239 18.6094ZM15.5764 18.6094C15.3548 19.1992 14.7444 19.6471 14.0002 19.6471V20.676C15.1559 20.676 16.1621 19.9784 16.5394 18.9701L15.5764 18.6094ZM14.0002 19.6471C13.2559 19.6471 12.6455 19.1999 12.4239 18.6094L11.4609 18.9701C11.8382 19.9784 12.8444 20.676 14.0002 20.676V19.6471Z" fill="white"/>
</svg>
