<svg width="28" height="28" viewBox="0 0 28 28" fill="none" xmlns="http://www.w3.org/2000/svg">
<rect width="28" height="28" rx="14" fill="#03838C"/>
<g clip-path="url(#clip0_564_912)">
<path d="M20.7667 13.9991C20.7667 17.8799 17.5024 20.9961 13.5689 20.7525C10.1986 20.5436 7.45552 17.8006 7.24692 14.4303C7.00308 10.4968 10.1193 7.23243 14.0001 7.23243C15.0304 7.23066 16.0474 7.46544 16.9727 7.91867C17.2133 8.03673 17.3015 8.33633 17.1687 8.5692L17.1678 8.57083C17.1087 8.67417 17.0123 8.75098 16.8983 8.78552C16.7844 8.82005 16.6616 8.80969 16.5551 8.75657C15.6642 8.3179 14.6457 8.1044 13.5707 8.18117C10.7474 8.38253 8.44158 10.647 8.19028 13.4664C7.87762 16.9755 10.6898 19.9209 14.155 19.8303C17.1225 19.7529 19.5996 17.3995 19.8168 14.4389C19.8734 13.6959 19.7864 12.9489 19.5604 12.2388C19.527 12.1334 19.5325 12.0195 19.5758 11.9177C19.6191 11.8159 19.6974 11.733 19.7965 11.684C20.0518 11.5563 20.3647 11.684 20.4513 11.9558C20.6609 12.6166 20.7675 13.3058 20.7667 13.9991Z" fill="white"/>
<path d="M10.5957 12.2426L14.2857 17.2352C14.3492 17.322 14.4335 17.3915 14.5308 17.4374C14.6282 17.4833 14.7354 17.5042 14.8428 17.498C14.9503 17.4918 15.0544 17.4589 15.1459 17.4021C15.2373 17.3454 15.313 17.2666 15.3662 17.1731L20.6984 7.94292C20.976 7.46225 20.3425 6.97902 19.9648 7.38362L14.4096 13.3341L11.1863 11.55C10.7507 11.309 10.298 11.8396 10.5957 12.2426Z" fill="white"/>
</g>
<defs>
<clipPath id="clip0_564_912">
<rect width="14" height="14" fill="white" transform="translate(7 7)"/>
</clipPath>
</defs>
</svg>
