<svg width="28" height="28" viewBox="0 0 28 28" fill="none" xmlns="http://www.w3.org/2000/svg">
<rect width="28" height="28" rx="14" fill="#03838C"/>
<path d="M19.7695 9.07812H8.23047C7.55062 9.07812 7 9.63216 7 10.3086V17.6914C7 18.3719 7.55467 18.9219 8.23047 18.9219H19.7695C20.4437 18.9219 21 18.3742 21 17.6914V10.3086C21 9.63337 20.4516 9.07812 19.7695 9.07812ZM19.5972 9.89844L14.8701 14.6007C14.6377 14.8331 14.3287 14.9611 14 14.9611C13.6713 14.9611 13.3623 14.8331 13.1292 14.5999L8.40279 9.89844H19.5972ZM7.82031 17.5244V10.4761L11.3651 14.0022L7.82031 17.5244ZM8.40331 18.1016L11.9467 14.5807L12.5499 15.1807C12.9372 15.5681 13.4522 15.7814 14 15.7814C14.5478 15.7814 15.0628 15.5681 15.4494 15.1815L16.0533 14.5807L19.5967 18.1016H8.40331ZM20.1797 17.5244L16.6349 14.0022L20.1797 10.4761V17.5244Z" fill="white"/>
</svg>
