<svg width="40" height="40" viewBox="0 0 40 40" fill="none" xmlns="http://www.w3.org/2000/svg">
<rect width="40" height="40" rx="10.7692" fill="#E6F4F1"/>
<rect x="0.384615" y="0.384615" width="39.2308" height="39.2308" rx="10.3846" stroke="#03838C" stroke-opacity="0.25" stroke-width="0.769231"/>
<g clip-path="url(#clip0_564_1211)">
<path d="M23.5166 9.90039C23.6963 9.90043 23.8689 9.97078 23.9971 10.0967L28.083 14.1094L28.2578 14.2812H28.2061C28.2153 14.2989 28.2266 14.3156 28.2344 14.334C28.2695 14.4179 28.288 14.5077 28.2881 14.5986V27.8135C28.2881 29.0743 27.2626 30.0996 26.002 30.0996H13.1865C11.9257 30.0996 10.9004 29.0742 10.9004 27.8135V12.1865C10.9004 10.9257 11.9259 9.90039 13.1865 9.90039H23.5166ZM13.1865 11.2715C12.6823 11.2715 12.2715 11.6823 12.2715 12.1865V27.8135C12.2715 28.3177 12.6825 28.7285 13.1865 28.7285H26.002L26.0957 28.7236C26.556 28.6765 26.916 28.286 26.916 27.8135V15.2852H24.2891C23.4851 15.2852 22.8303 14.6311 22.8301 13.8271V11.2715H13.1865ZM24.2021 13.8262C24.2022 13.8491 24.2114 13.8715 24.2275 13.8877C24.2437 13.9039 24.2661 13.9131 24.2891 13.9131H25.9258L24.2021 12.2197V13.8262Z" fill="#03838C" stroke="#03838C" stroke-width="0.2"/>
<path d="M22.9502 23.8848C23.3287 23.885 23.6357 24.1916 23.6357 24.5703C23.6357 24.9491 23.3287 25.2557 22.9502 25.2559H15.4023C15.0235 25.2558 14.7168 24.9492 14.7168 24.5703C14.7168 24.1915 15.0235 23.8848 15.4023 23.8848H22.9502ZM22.1377 21.541C22.5164 21.5412 22.8232 21.8478 22.8232 22.2266C22.8232 22.6053 22.5164 22.9119 22.1377 22.9121H15.4023C15.0235 22.9121 14.7168 22.6054 14.7168 22.2266C14.7168 21.8477 15.0235 21.541 15.4023 21.541H22.1377ZM23.6621 19.1973C24.041 19.1973 24.3486 19.504 24.3486 19.8828C24.3486 20.2617 24.041 20.5684 23.6621 20.5684H15.4023C15.0235 20.5684 14.7168 20.2617 14.7168 19.8828C14.7168 19.504 15.0235 19.1973 15.4023 19.1973H23.6621Z" fill="#03838C" stroke="#03838C" stroke-width="0.2"/>
</g>
<defs>
<clipPath id="clip0_564_1211">
<rect width="20" height="20" fill="white" transform="translate(10 10)"/>
</clipPath>
</defs>
</svg>
