<svg width="40" height="40" viewBox="0 0 40 40" fill="none" xmlns="http://www.w3.org/2000/svg">
<rect width="40" height="40" rx="10.7692" fill="#E6F4F1"/>
<rect x="0.384615" y="0.384615" width="39.2308" height="39.2308" rx="10.3846" stroke="#03838C" stroke-opacity="0.25" stroke-width="0.769231"/>
<g clip-path="url(#clip0_564_1184)">
<path d="M29.1684 26.8709L26.2642 20.6429C26.8384 19.6125 27.1662 18.4269 27.1662 17.1659C27.1662 13.2146 23.9516 10 20.0003 10C16.0491 10 12.8344 13.2146 12.8344 17.1659C12.8344 18.4268 13.1622 19.6125 13.7364 20.6429L10.8322 26.871C10.5875 27.3958 11.1013 27.9565 11.6454 27.7584L14.4962 26.7209L15.5338 29.5716C15.7317 30.1154 16.4908 30.1509 16.7364 29.6241L19.2239 24.2896C19.479 24.3172 19.738 24.3318 20.0003 24.3318C20.2627 24.3318 20.5217 24.3172 20.7768 24.2896L23.2643 29.6241C23.5094 30.1498 24.2685 30.1166 24.4669 29.5716L25.5045 26.7209L28.3553 27.7584C28.8982 27.9561 29.4135 27.3966 29.1684 26.8709ZM16.2201 27.648L15.4976 25.663C15.3747 25.3254 15.0007 25.1505 14.6627 25.2737L12.6777 25.9962L14.6009 21.872C15.4717 22.8698 16.6141 23.6248 17.9115 24.0209L16.2201 27.648ZM20.0003 23.0289C16.7675 23.0289 14.1373 20.3988 14.1373 17.1659C14.1373 13.933 16.7674 11.3029 20.0003 11.3029C23.2332 11.3029 25.8633 13.933 25.8633 17.1659C25.8633 20.3988 23.2332 23.0289 20.0003 23.0289ZM25.3379 25.2737C25.0001 25.1507 24.626 25.325 24.5029 25.663L23.7804 27.6481L22.089 24.021C23.3865 23.6248 24.5288 22.8699 25.3997 21.872L27.3229 25.9962L25.3379 25.2737Z" fill="#03838C"/>
<path d="M23.1263 15.5275L21.37 15.2723L20.5846 13.6808C20.3461 13.1977 19.6549 13.1974 19.4163 13.6808L18.6308 15.2723L16.8746 15.5275C16.3415 15.605 16.1275 16.2624 16.5136 16.6387L17.7843 17.8775L17.4843 19.6266C17.3933 20.1574 17.9522 20.5644 18.4295 20.3134L20.0004 19.4875L21.5713 20.3134C22.0475 20.5637 22.6078 20.1593 22.5165 19.6266L22.2165 17.8775L23.4873 16.6387C23.8731 16.2626 23.6598 15.605 23.1263 15.5275ZM21.0617 17.1835C20.9861 17.2573 20.9295 17.3483 20.8969 17.4487C20.8643 17.5492 20.8565 17.6561 20.8744 17.7601L21.0092 18.5459L20.3036 18.1749C20.2101 18.1258 20.106 18.1001 20.0004 18.1001C19.8948 18.1001 19.7907 18.1258 19.6972 18.1749L18.9916 18.5459L19.1264 17.7601C19.1442 17.6561 19.1365 17.5492 19.1039 17.4487C19.0713 17.3483 19.0147 17.2573 18.9391 17.1835L18.3681 16.6271L19.157 16.5125C19.2616 16.4973 19.3608 16.4569 19.4463 16.3948C19.5317 16.3327 19.6008 16.2508 19.6475 16.1561L20.0004 15.4411L20.3532 16.156C20.3999 16.2507 20.469 16.3327 20.5545 16.3947C20.6399 16.4568 20.7392 16.4972 20.8437 16.5124L21.6327 16.627L21.0617 17.1835Z" fill="#03838C"/>
</g>
<defs>
<clipPath id="clip0_564_1184">
<rect width="20" height="20" fill="white" transform="translate(10 10)"/>
</clipPath>
</defs>
</svg>
