<svg width="40" height="40" viewBox="0 0 40 40" fill="none" xmlns="http://www.w3.org/2000/svg">
<rect width="40" height="40" rx="10.7692" fill="#E6F4F1"/>
<rect x="0.384615" y="0.384615" width="39.2308" height="39.2308" rx="10.3846" stroke="#03838C" stroke-opacity="0.25" stroke-width="0.769231"/>
<path fill-rule="evenodd" clip-rule="evenodd" d="M25 19.375C22.5856 19.375 20.625 21.3356 20.625 23.75C20.625 26.1644 22.5856 28.125 25 28.125C27.4144 28.125 29.375 26.1644 29.375 23.75C29.375 21.3356 27.4144 19.375 25 19.375ZM25 20.625C26.725 20.625 28.125 22.025 28.125 23.75C28.125 25.475 26.725 26.875 25 26.875C23.275 26.875 21.875 25.475 21.875 23.75C21.875 22.025 23.275 20.625 25 20.625ZM11.875 13.9138L19.6188 19.8706C19.8438 20.0431 20.1562 20.0431 20.3813 19.8706L28.125 13.9138V18.75C28.125 18.9158 28.1908 19.0747 28.3081 19.1919C28.4253 19.3092 28.5842 19.375 28.75 19.375C28.9158 19.375 29.0747 19.3092 29.1919 19.1919C29.3092 19.0747 29.375 18.9158 29.375 18.75V13.75C29.375 12.715 28.535 11.875 27.5 11.875H12.5C11.465 11.875 10.625 12.715 10.625 13.75V23.75C10.625 24.785 11.465 25.625 12.5 25.625H19.375C19.5408 25.625 19.6997 25.5592 19.8169 25.4419C19.9342 25.3247 20 25.1658 20 25C20 24.8342 19.9342 24.6753 19.8169 24.5581C19.6997 24.4408 19.5408 24.375 19.375 24.375H12.5C12.3342 24.375 12.1753 24.3092 12.0581 24.1919C11.9408 24.0747 11.875 23.9158 11.875 23.75V13.9138ZM22.9956 24.1919L24.2456 25.4419C24.3036 25.5 24.3725 25.5461 24.4483 25.5775C24.5241 25.6089 24.6054 25.6251 24.6875 25.6251C24.7696 25.6251 24.8509 25.6089 24.9267 25.5775C25.0025 25.5461 25.0714 25.5 25.1294 25.4419L27.0044 23.5669C27.1182 23.449 27.1812 23.2911 27.1798 23.1272C27.1784 22.9634 27.1126 22.8066 26.9968 22.6907C26.8809 22.5749 26.7241 22.5091 26.5603 22.5077C26.3964 22.5063 26.2385 22.5693 26.1206 22.6831L24.6875 24.1163L23.8794 23.3081C23.7615 23.1943 23.6036 23.1313 23.4397 23.1327C23.2759 23.1341 23.1191 23.1999 23.0032 23.3157C22.8874 23.4316 22.8216 23.5884 22.8202 23.7522C22.8188 23.9161 22.8818 24.074 22.9956 24.1919ZM27.1 13.125H12.9L20 18.5862L27.1 13.125Z" fill="#03838C"/>
</svg>
