<svg width="28" height="28" viewBox="0 0 28 28" fill="none" xmlns="http://www.w3.org/2000/svg">
<rect width="28" height="28" rx="7.53846" fill="#E6F4F1"/>
<rect x="0.269231" y="0.269231" width="27.4615" height="27.4615" rx="7.26923" stroke="#03838C" stroke-opacity="0.25" stroke-width="0.538462"/>
<path d="M12.3584 9.83398C13.0034 9.83398 13.5166 10.3449 13.5166 10.9756V13.2051C13.6611 13.1384 13.8217 13.1007 13.9912 13.1006H13.9922C14.2294 13.0993 14.4616 13.171 14.6562 13.3066C14.8158 13.4179 14.9409 13.569 15.0264 13.7422C15.2051 13.6295 15.4121 13.5682 15.625 13.5674L15.7451 13.5732C16.2984 13.6285 16.7288 14.0624 16.7773 14.6064C16.9235 14.5381 17.0869 14.5 17.2588 14.5C17.9038 14.5 18.417 15.0119 18.417 15.6426V16.3633C18.417 16.9274 18.3386 17.4888 18.1836 18.0312L17.4707 20.5254L17.4697 20.5283C17.4434 20.6108 17.3859 20.6798 17.3096 20.7207C17.2331 20.7617 17.1439 20.7709 17.0605 20.7471C16.9772 20.7232 16.9065 20.668 16.8633 20.5928C16.8201 20.5176 16.8077 20.4287 16.8291 20.3447L16.8301 20.3418L17.542 17.8477C17.6799 17.3649 17.75 16.8653 17.75 16.3633V15.6426C17.7498 15.5166 17.6994 15.3957 17.6104 15.3066C17.5213 15.2175 17.4004 15.1671 17.2744 15.167C16.9946 15.1672 16.7832 15.3825 16.7832 15.6426V16.2334C16.7832 16.3218 16.7481 16.4072 16.6855 16.4697C16.6231 16.532 16.5384 16.5673 16.4502 16.5674C16.3618 16.5674 16.2764 16.5322 16.2139 16.4697C16.1514 16.4072 16.1162 16.3218 16.1162 16.2334V14.709C16.1161 14.583 16.0665 14.4621 15.9775 14.373C15.8885 14.284 15.7675 14.2336 15.6416 14.2334C15.3615 14.2334 15.1504 14.4487 15.1504 14.709V16.2334C15.1504 16.3218 15.1152 16.4072 15.0527 16.4697C14.9902 16.5322 14.9048 16.5674 14.8164 16.5674C14.7282 16.5673 14.6435 16.532 14.5811 16.4697C14.5185 16.4072 14.4834 16.3218 14.4834 16.2334V14.2422L14.4736 14.1494C14.4553 14.058 14.4106 13.9731 14.3438 13.9062C14.2547 13.8172 14.1338 13.7668 14.0078 13.7666C13.7279 13.7668 13.5166 13.982 13.5166 14.2422V15.7666C13.5166 15.855 13.4815 15.9404 13.4189 16.0029C13.3565 16.0653 13.2718 16.1005 13.1836 16.1006C13.0952 16.1006 13.0098 16.0654 12.9473 16.0029C12.8848 15.9404 12.8496 15.855 12.8496 15.7666V10.9756C12.8495 10.8496 12.7999 10.7287 12.7109 10.6396C12.6219 10.5506 12.5009 10.5002 12.375 10.5C12.0949 10.5 11.8838 10.7153 11.8838 10.9756V17.8672C11.8837 17.9554 11.8484 18.0401 11.7861 18.1025C11.7236 18.1651 11.6382 18.2002 11.5498 18.2002C11.4615 18.2001 11.3769 18.165 11.3145 18.1025C11.252 18.0401 11.2169 17.9555 11.2168 17.8672V15.6338H10.834L10.7197 15.6445C10.6074 15.667 10.5031 15.7225 10.4209 15.8047C10.3116 15.914 10.2502 16.0623 10.25 16.2168V16.8008C10.251 17.5658 10.5113 18.3082 10.9883 18.9062L12.0439 20.2256C12.0712 20.2597 12.0914 20.2989 12.1035 20.3408C12.1157 20.3829 12.1201 20.4272 12.1152 20.4707C12.1104 20.5141 12.0963 20.5565 12.0752 20.5947C12.0541 20.6329 12.0253 20.6671 11.9912 20.6943C11.9572 20.7215 11.9178 20.7418 11.876 20.7539C11.834 20.7661 11.7895 20.7695 11.7461 20.7646C11.7027 20.7597 11.6603 20.7467 11.6221 20.7256C11.603 20.715 11.585 20.7025 11.5684 20.6885L11.5234 20.6416L10.4678 19.3232C9.89732 18.6102 9.58398 17.7141 9.58398 16.8008V16.2168C9.58439 15.8854 9.71586 15.5673 9.9502 15.333C10.1845 15.0988 10.5027 14.9671 10.834 14.9668H11.2168V10.9756C11.2171 10.6729 11.3377 10.382 11.5518 10.168C11.7658 9.95415 12.0559 9.83433 12.3584 9.83398Z" fill="#03838C" stroke="#03838C" stroke-width="0.2"/>
<path d="M12.3662 7.90039C13.4505 7.90039 14.3328 8.78196 14.333 9.86621C14.333 9.95462 14.2979 10.04 14.2354 10.1025C14.1729 10.1649 14.0883 10.2002 14 10.2002C13.9117 10.2002 13.8271 10.1649 13.7646 10.1025C13.7021 10.04 13.667 9.95462 13.667 9.86621C13.6667 9.14955 13.0829 8.56641 12.3662 8.56641C11.6497 8.56665 11.0667 9.1497 11.0664 9.86621C11.0664 9.95462 11.0313 10.04 10.9688 10.1025C10.9063 10.1649 10.8217 10.2002 10.7334 10.2002C10.6451 10.2002 10.5605 10.1649 10.498 10.1025C10.4355 10.04 10.4004 9.95462 10.4004 9.86621C10.4006 8.78211 11.2821 7.90064 12.3662 7.90039Z" fill="#03838C" stroke="#03838C" stroke-width="0.2"/>
</svg>
