<svg width="162" height="324" viewBox="0 0 162 324" fill="none" xmlns="http://www.w3.org/2000/svg">
<mask id="mask0_266_20791" style="mask-type:luminance" maskUnits="userSpaceOnUse" x="-162" y="0" width="324" height="324">
<path d="M-56.0747 0L161.525 105.924L55.6 323.523L-162 217.599L-56.0747 0Z" fill="white"/>
</mask>
<g mask="url(#mask0_266_20791)">
<path d="M24.8046 180.303C20.7946 169.638 12.85 160.914 2.60478 155.927C-7.64043 150.94 -19.4072 150.068 -30.2754 153.491L-78.7861 168.737C-106.25 176.774 -108.618 216.543 -82.2861 227.763C-68.1634 234.175 -53.3661 232.546 -38.4368 240.15C-22.6981 247.475 -14.1661 259.409 -0.754097 267.451C24.2259 280.326 53.2032 253.974 42.6953 227.873L24.8019 180.303H24.8046ZM104.467 161.97C92.7206 153.098 75.7592 162.714 67.1166 173.901C40.6139 208.649 74.3699 234.165 101.298 201.053C112.662 186.777 114.053 169.579 104.467 161.97ZM39.2926 155.982C52.2126 162.271 69.8686 152.698 78.6393 134.678C98.4659 90.6648 54.1992 69.1168 31.8232 111.887C23.0499 129.907 26.4072 149.71 39.2926 155.982ZM-20.0714 127.085C-7.18476 133.358 10.4712 123.783 19.2419 105.763C39.1032 61.7674 -5.16476 40.2194 -27.5754 82.9741C-36.3474 100.994 -32.9914 120.795 -20.0714 127.085Z" fill="#03838C" fill-opacity="0.48"/>
</g>
</svg>
