<svg width="283" height="450" viewBox="0 0 283 450" fill="none" xmlns="http://www.w3.org/2000/svg">
<mask id="mask0_266_20796" style="mask-type:luminance" maskUnits="userSpaceOnUse" x="23" y="25" width="422" height="400">
<path d="M23.6755 193.064L273.227 25.177L444.79 256.422L195.238 424.307L23.6755 193.064Z" fill="white"/>
</mask>
<g mask="url(#mask0_266_20796)">
<path d="M264.052 168.955C251.869 170.463 240.727 176.581 232.916 186.051C225.105 195.522 221.219 207.625 222.057 219.871L225.768 274.528C227.24 305.324 268.291 317.844 286.696 293.098C296.983 279.924 299.015 264.016 310.754 250.297C322.393 235.667 337.05 229.743 348.867 217.725C368.659 194.814 348.376 157.814 318.395 162.225L264.052 168.955ZM264.973 80.8954C252.71 90.9599 258.503 111.149 268.03 123.026C297.724 159.558 332.977 130.646 305.109 94.0796C293.022 78.5755 275.371 72.7737 264.973 80.8954ZM242.243 147.64C252.095 135.695 246.522 114.789 229.872 101.051C188.781 69.1758 155.031 110.098 194.169 144.334C210.832 158.067 232.409 159.556 242.243 147.64ZM177.718 232.527C164.268 225.399 143.323 223.591 135.773 237.543C123.047 264.434 178.244 294.116 196.314 272.467C206.057 259.814 196.453 242.332 177.718 232.527ZM196.972 202.522C206.806 190.605 201.234 169.699 184.582 155.96C143.523 124.051 109.772 164.973 148.879 199.243C165.543 212.976 187.132 214.459 196.972 202.522Z" fill="#03838C" fill-opacity="0.48"/>
</g>
</svg>
