<svg width="58" height="25" viewBox="0 0 58 25" fill="none" xmlns="http://www.w3.org/2000/svg">
<path d="M15.8158 20.8078C15.2558 20.8078 14.7918 20.6718 14.4238 20.3998C14.0718 20.1438 13.7358 19.7438 13.4158 19.1998C13.2238 18.8798 13.0478 18.5038 12.8878 18.0718C12.7278 17.6558 12.5758 17.1438 12.4318 16.5358C12.2878 15.9278 12.1678 15.1758 12.0718 14.2798L13.1518 14.7598C12.4798 15.6078 11.7438 16.2958 10.9438 16.8238C10.1598 17.3358 9.33585 17.7118 8.47185 17.9518C7.62385 18.1918 6.75185 18.3118 5.85585 18.3118C4.65585 18.3118 3.61585 18.0798 2.73585 17.6158C1.87185 17.1358 1.19985 16.4478 0.719848 15.5518C0.239848 14.6558 -0.00015226 13.5998 -0.00015226 12.3838C-0.00015226 11.2158 0.207848 10.0798 0.623848 8.97578C1.03985 7.87178 1.60785 6.84778 2.32785 5.90378C3.04785 4.94378 3.87185 4.10378 4.79985 3.38378C5.74385 2.66378 6.75185 2.10378 7.82385 1.70378C8.89585 1.28778 9.98385 1.07978 11.0878 1.07978C11.7918 1.07978 12.3518 1.17578 12.7678 1.36778C13.1998 1.55978 13.5118 1.83178 13.7038 2.18378C13.9118 2.51978 14.0158 2.91178 14.0158 3.35978C14.0158 3.88778 13.9118 4.37578 13.7038 4.82378C13.5118 5.27178 13.2398 5.63178 12.8878 5.90378C12.5358 6.17578 12.1278 6.31178 11.6638 6.31178C11.4398 6.31178 11.2718 6.27978 11.1598 6.21578C11.0478 6.13578 10.9678 6.03178 10.9198 5.90378C10.8718 5.77578 10.8238 5.65578 10.7758 5.54378C10.7278 5.41578 10.6558 5.31178 10.5598 5.23178C10.4638 5.15178 10.3038 5.11178 10.0798 5.11178C9.47185 5.11178 8.86385 5.25578 8.25585 5.54378C7.66385 5.81578 7.10385 6.19178 6.57585 6.67178C6.06385 7.15178 5.61585 7.69578 5.23185 8.30378C4.84785 8.91178 4.53585 9.53578 4.29585 10.1758C4.07185 10.8158 3.95985 11.4398 3.95985 12.0478C3.95985 12.9438 4.15185 13.6078 4.53585 14.0398C4.91985 14.4718 5.46385 14.6878 6.16785 14.6878C6.93585 14.6878 7.67185 14.5678 8.37585 14.3278C9.09585 14.0718 9.77585 13.6958 10.4158 13.1998C11.0558 12.6878 11.6158 12.0558 12.0958 11.3038C12.3998 10.8878 12.7278 10.6078 13.0798 10.4638C13.4478 10.3038 13.8878 10.2238 14.3998 10.2238C14.7998 10.2238 15.0878 10.2958 15.2638 10.4398C15.4558 10.5678 15.5518 10.7838 15.5518 11.0878C15.5518 12.2078 15.5838 13.1518 15.6478 13.9198C15.7278 14.6718 15.8478 15.3278 16.0078 15.8878C16.1678 16.4478 16.3758 16.9998 16.6318 17.5438C16.8078 17.9118 16.9358 18.1998 17.0158 18.4078C17.0958 18.6318 17.1518 18.8158 17.1838 18.9598C17.2158 19.1198 17.2318 19.2878 17.2318 19.4638C17.2318 19.8958 17.0958 20.2238 16.8238 20.4478C16.5678 20.6878 16.2318 20.8078 15.8158 20.8078ZM8.87985 12.0478C8.36785 12.0478 7.91985 11.8798 7.53585 11.5438C7.16785 11.1918 6.98385 10.7518 6.98385 10.2238C6.98385 9.85578 7.08785 9.55978 7.29585 9.33578C7.51985 9.11178 7.94385 8.91178 8.56785 8.73578C9.54385 8.44778 10.5758 8.22378 11.6638 8.06378C12.7678 7.90378 13.9758 7.81578 15.2878 7.79978C16.0078 7.79978 16.5438 7.85578 16.8958 7.96778C17.2478 8.07978 17.4878 8.24778 17.6158 8.47178C17.7438 8.69578 17.8078 8.96778 17.8078 9.28778C17.8078 9.81578 17.6478 10.2878 17.3278 10.7038C17.0238 11.1198 16.5198 11.3278 15.8158 11.3278C14.4718 11.3278 13.3678 11.3838 12.5038 11.4958C11.6398 11.6078 10.9278 11.7278 10.3678 11.8558C9.80785 11.9838 9.31185 12.0478 8.87985 12.0478ZM27.7815 24.3118C26.3575 24.3118 25.1975 24.1918 24.3015 23.9518C23.4215 23.7118 22.7415 23.4078 22.2615 23.0398C21.7815 22.6718 21.4455 22.2718 21.2535 21.8398C21.0775 21.4078 20.9895 20.9998 20.9895 20.6158C20.9895 20.0078 21.1655 19.4798 21.5175 19.0318C21.8695 18.5998 22.3335 18.3838 22.9095 18.3838C23.3095 18.3838 23.5895 18.4638 23.7495 18.6238C23.9255 18.7838 24.0135 19.0078 24.0135 19.2958C24.0135 19.5678 24.1175 19.8158 24.3255 20.0398C24.5495 20.2798 24.9255 20.4638 25.4535 20.5918C25.9815 20.7358 26.6775 20.8078 27.5415 20.8078C28.3095 20.8078 28.8375 20.6158 29.1255 20.2318C29.4135 19.8638 29.5575 19.3198 29.5575 18.5998C29.5575 17.9918 29.5175 17.4478 29.4375 16.9678C29.3575 16.4718 29.2615 15.9998 29.1495 15.5518C29.0375 15.0878 28.9255 14.6078 28.8135 14.1118C28.7015 13.5998 28.6055 13.0398 28.5255 12.4318L29.9175 12.6238C29.7095 13.4238 29.3895 14.0958 28.9575 14.6398C28.5415 15.1838 28.0615 15.6238 27.5175 15.9598C26.9735 16.2798 26.4135 16.5118 25.8375 16.6558C25.2615 16.7838 24.7015 16.8478 24.1575 16.8478C23.1175 16.8478 22.2215 16.6638 21.4695 16.2958C20.7335 15.9278 20.1575 15.3918 19.7415 14.6878C19.3415 13.9838 19.1415 13.1358 19.1415 12.1438C19.1415 11.2158 19.3175 10.3518 19.6695 9.55178C20.0215 8.75178 20.4935 8.05578 21.0855 7.46378C21.6935 6.85578 22.3895 6.38378 23.1735 6.04778C23.9575 5.69578 24.7815 5.51978 25.6455 5.51978C26.5095 5.51978 27.1975 5.67178 27.7095 5.97578C28.2215 6.27978 28.5815 6.66378 28.7895 7.12778C29.0135 7.59178 29.1255 8.07978 29.1255 8.59178C29.1255 8.99178 29.0375 9.31978 28.8615 9.57578C28.6855 9.83178 28.5015 9.95978 28.3095 9.95978C28.0855 9.95978 27.9015 9.91178 27.7575 9.81578C27.6295 9.71978 27.5015 9.60778 27.3735 9.47978C27.2455 9.35178 27.0855 9.23978 26.8935 9.14378C26.7175 9.04778 26.4775 8.99978 26.1735 8.99978C25.7735 8.99978 25.3735 9.08778 24.9735 9.26378C24.5735 9.42378 24.2055 9.64778 23.8695 9.93578C23.5495 10.2078 23.2855 10.5198 23.0775 10.8718C22.8695 11.2078 22.7655 11.5518 22.7655 11.9038C22.7655 12.3038 22.8775 12.6158 23.1015 12.8398C23.3415 13.0638 23.6935 13.1758 24.1575 13.1758C24.9895 13.1758 25.7255 12.9998 26.3655 12.6478C27.0055 12.2958 27.5095 11.7598 27.8775 11.0398C28.2615 10.3038 28.4535 9.38378 28.4535 8.27978C28.4535 7.79978 28.5255 7.44778 28.6695 7.22378C28.8295 6.99978 29.1015 6.88778 29.4855 6.88778C29.9975 6.88778 30.4135 6.98378 30.7335 7.17578C31.0535 7.35178 31.3015 7.59178 31.4775 7.89578C31.6535 8.18378 31.7495 8.48778 31.7655 8.80778C31.8455 9.75178 31.9655 10.5998 32.1255 11.3518C32.2855 12.1038 32.4455 12.8398 32.6055 13.5598C32.7655 14.2638 32.9015 15.0318 33.0135 15.8638C33.1415 16.6958 33.2055 17.6718 33.2055 18.7918C33.2055 20.5038 32.7335 21.8478 31.7895 22.8238C30.8455 23.8158 29.5095 24.3118 27.7815 24.3118ZM37.5846 18.3118C37.1046 18.3118 36.7206 18.2078 36.4326 17.9998C36.1446 17.7918 35.9286 17.5118 35.7846 17.1598C35.6566 16.7918 35.5926 16.3838 35.5926 15.9358C35.5926 14.8958 35.5846 14.0238 35.5686 13.3198C35.5526 12.5998 35.5366 11.9758 35.5206 11.4478C35.5206 10.9198 35.5126 10.4238 35.4966 9.95978C35.4806 9.49578 35.4726 8.99978 35.4726 8.47178C35.4726 7.97578 35.5526 7.51978 35.7126 7.10378C35.8726 6.68778 36.1286 6.35978 36.4806 6.11978C36.8486 5.87978 37.3126 5.75978 37.8726 5.75978C38.4326 5.75978 38.8726 5.94378 39.1926 6.31178C39.5126 6.66378 39.6806 7.21578 39.6966 7.96778C39.6966 8.28778 39.6886 8.72778 39.6726 9.28778C39.6726 9.84778 39.6566 10.4718 39.6246 11.1598C39.6086 11.8318 39.5846 12.5118 39.5526 13.1998C39.5366 13.8718 39.5206 14.4958 39.5046 15.0718C39.4886 15.6478 39.4806 16.1118 39.4806 16.4638C39.4806 16.9918 39.3286 17.4318 39.0246 17.7838C38.7206 18.1358 38.2406 18.3118 37.5846 18.3118ZM37.8726 4.22378C37.0566 4.22378 36.4006 4.01578 35.9046 3.59978C35.4086 3.16778 35.1606 2.64778 35.1606 2.03978C35.1606 1.38378 35.3766 0.879776 35.8086 0.527777C36.2566 0.175777 36.8246 -0.00022316 37.5126 -0.00022316C38.0566 -0.00022316 38.5126 0.119777 38.8806 0.359776C39.2486 0.599776 39.5286 0.895776 39.7206 1.24778C39.9286 1.59978 40.0326 1.95178 40.0326 2.30378C40.0326 2.76778 39.8646 3.20778 39.5286 3.62378C39.2086 4.02378 38.6566 4.22378 37.8726 4.22378ZM46.1457 18.3118C45.3137 18.3118 44.5857 18.1598 43.9617 17.8558C43.3377 17.5358 42.8497 17.0958 42.4977 16.5358C42.1457 15.9598 41.9697 15.2958 41.9697 14.5438C41.9697 13.7278 42.1057 12.8958 42.3777 12.0478C42.6497 11.1998 43.0257 10.3918 43.5057 9.62378C43.9857 8.85578 44.5377 8.16778 45.1617 7.55978C45.8017 6.95178 46.4817 6.47178 47.2017 6.11978C47.9217 5.76778 48.6497 5.59178 49.3857 5.59178C49.9777 5.59178 50.4817 5.78378 50.8977 6.16778C51.3137 6.55178 51.5217 7.09578 51.5217 7.79978C51.5217 8.05578 51.4497 8.25578 51.3057 8.39978C51.1617 8.54378 50.9777 8.63978 50.7537 8.68778C49.7297 8.84778 48.8257 9.24778 48.0417 9.88778C47.2577 10.5118 46.6417 11.2638 46.1937 12.1438C45.7457 13.0078 45.5217 13.9118 45.5217 14.8558C45.5217 15.1278 45.5377 15.3838 45.5697 15.6238C45.6177 15.8478 45.7057 16.1358 45.8337 16.4878L44.2017 14.0398C44.5857 14.3278 44.9217 14.5278 45.2097 14.6398C45.5137 14.7358 45.8657 14.7838 46.2657 14.7838C47.0817 14.7838 47.8417 14.2798 48.5457 13.2718C49.2497 12.2478 49.7537 10.7518 50.0577 8.78378C50.1057 8.39978 50.2737 8.10378 50.5617 7.89578C50.8497 7.67178 51.1777 7.55978 51.5457 7.55978C52.1697 7.55978 52.6977 7.72778 53.1297 8.06378C53.5617 8.39978 53.8657 8.81578 54.0417 9.31178C54.3137 10.0478 54.5617 10.7358 54.7857 11.3758C55.0257 11.9998 55.3057 12.6078 55.6257 13.1998C55.9617 13.7758 56.4097 14.3758 56.9697 14.9998C57.1777 15.2398 57.2817 15.5438 57.2817 15.9118C57.2977 16.2638 57.2337 16.6238 57.0897 16.9918C56.9457 17.3438 56.7297 17.6398 56.4417 17.8798C56.1697 18.1198 55.8337 18.2398 55.4337 18.2398C55.1457 18.2398 54.9137 18.1838 54.7377 18.0718C54.5617 17.9758 54.4097 17.8478 54.2817 17.6878C53.9297 17.2718 53.6177 16.8638 53.3457 16.4638C53.0737 16.0478 52.8177 15.6158 52.5777 15.1678C52.3537 14.7038 52.1377 14.1918 51.9297 13.6318C51.7377 13.0558 51.5377 12.3918 51.3297 11.6398L52.6017 11.5438C52.2977 12.8238 51.9057 13.8958 51.4257 14.7598C50.9457 15.6238 50.4177 16.3198 49.8417 16.8478C49.2817 17.3758 48.6817 17.7518 48.0417 17.9758C47.4177 18.1998 46.7857 18.3118 46.1457 18.3118Z" fill="white"/>
</svg>
