<svg width="28" height="28" viewBox="0 0 28 28" fill="none" xmlns="http://www.w3.org/2000/svg">
<rect width="28" height="28" rx="14" fill="#03838C"/>
<g clip-path="url(#clip0_564_1052)">
<path d="M20.4183 18.8097L18.3853 14.45C18.7873 13.7287 19.0168 12.8988 19.0168 12.0161C19.0168 9.25023 16.7665 7 14.0006 7C11.2347 7 8.98447 9.25023 8.98447 12.0161C8.98447 12.8988 9.21394 13.7287 9.61589 14.45L7.58294 18.8097C7.41166 19.1771 7.77134 19.5695 8.15218 19.4309L10.1477 18.7046L10.874 20.7001C11.0126 21.0807 11.5439 21.1056 11.7158 20.7369L13.4571 17.0027C13.6357 17.0221 13.817 17.0323 14.0006 17.0323C14.1843 17.0323 14.3656 17.0221 14.5441 17.0027L16.2854 20.7369C16.457 21.1049 16.9884 21.0816 17.1272 20.7001L17.8535 18.7046L19.8491 19.4309C20.2291 19.5693 20.5898 19.1776 20.4183 18.8097ZM11.3545 19.3536L10.8487 17.9641C10.7627 17.7277 10.5009 17.6054 10.2643 17.6916L8.87477 18.1973L10.221 15.3104C10.8306 16.0089 11.6302 16.5374 12.5385 16.8147L11.3545 19.3536ZM14.0006 16.1202C11.7376 16.1202 9.89652 14.2791 9.89652 12.0161C9.89652 9.75313 11.7376 7.91202 14.0006 7.91202C16.2636 7.91202 18.1047 9.75313 18.1047 12.0161C18.1047 14.2791 16.2636 16.1202 14.0006 16.1202ZM17.7369 17.6916C17.5005 17.6055 17.2386 17.7275 17.1524 17.9641L16.6467 19.3537L15.4627 16.8147C16.3709 16.5374 17.1706 16.0089 17.7802 15.3104L19.1264 18.1973L17.7369 17.6916Z" fill="white"/>
<path d="M16.1886 10.8706L14.9592 10.692L14.4094 9.57796C14.2425 9.23975 13.7587 9.23953 13.5916 9.57796L13.0418 10.692L11.8124 10.8706C11.4393 10.9249 11.2894 11.385 11.5597 11.6484L12.4492 12.5156L12.2392 13.74C12.1755 14.1116 12.5668 14.3964 12.9009 14.2207L14.0005 13.6426L15.1001 14.2207C15.4335 14.396 15.8257 14.1129 15.7618 13.74L15.5518 12.5156L16.4414 11.6484C16.7114 11.3852 16.5621 10.9249 16.1886 10.8706ZM14.7434 12.0298C14.6905 12.0815 14.6509 12.1452 14.628 12.2155C14.6052 12.2858 14.5998 12.3606 14.6123 12.4335L14.7067 12.9835L14.2127 12.7238C14.1473 12.6894 14.0744 12.6714 14.0005 12.6714C13.9266 12.6714 13.8537 12.6894 13.7883 12.7238L13.2943 12.9835L13.3887 12.4335C13.4012 12.3606 13.3958 12.2858 13.3729 12.2155C13.3501 12.1452 13.3105 12.0815 13.2576 12.0298L12.8579 11.6403L13.4101 11.5601C13.4833 11.5495 13.5528 11.5212 13.6126 11.4777C13.6724 11.4343 13.7208 11.3769 13.7535 11.3106L14.0005 10.8102L14.2475 11.3106C14.2802 11.3769 14.3285 11.4342 14.3883 11.4777C14.4482 11.5211 14.5176 11.5494 14.5908 11.56L15.1431 11.6403L14.7434 12.0298Z" fill="white"/>
</g>
<defs>
<clipPath id="clip0_564_1052">
<rect width="14" height="14" fill="white" transform="translate(7 7)"/>
</clipPath>
</defs>
</svg>
