<svg width="58" height="25" viewBox="0 0 58 25" fill="none" xmlns="http://www.w3.org/2000/svg">
<path d="M15.8158 20.8083C15.2558 20.8083 14.7918 20.6723 14.4238 20.4003C14.0718 20.1443 13.7358 19.7443 13.4158 19.2003C13.2238 18.8803 13.0478 18.5043 12.8878 18.0723C12.7278 17.6563 12.5758 17.1443 12.4318 16.5363C12.2878 15.9283 12.1678 15.1763 12.0718 14.2803L13.1518 14.7603C12.4798 15.6083 11.7438 16.2963 10.9438 16.8243C10.1598 17.3363 9.33585 17.7123 8.47185 17.9523C7.62385 18.1923 6.75185 18.3123 5.85585 18.3123C4.65585 18.3123 3.61585 18.0803 2.73585 17.6163C1.87185 17.1363 1.19985 16.4483 0.719848 15.5523C0.239848 14.6563 -0.00015226 13.6003 -0.00015226 12.3843C-0.00015226 11.2163 0.207848 10.0803 0.623848 8.97627C1.03985 7.87227 1.60785 6.84827 2.32785 5.90426C3.04785 4.94426 3.87185 4.10426 4.79985 3.38426C5.74385 2.66427 6.75185 2.10427 7.82385 1.70426C8.89585 1.28827 9.98385 1.08027 11.0878 1.08027C11.7918 1.08027 12.3518 1.17627 12.7678 1.36826C13.1998 1.56027 13.5118 1.83226 13.7038 2.18426C13.9118 2.52026 14.0158 2.91226 14.0158 3.36026C14.0158 3.88826 13.9118 4.37626 13.7038 4.82426C13.5118 5.27226 13.2398 5.63226 12.8878 5.90426C12.5358 6.17627 12.1278 6.31227 11.6638 6.31227C11.4398 6.31227 11.2718 6.28027 11.1598 6.21627C11.0478 6.13627 10.9678 6.03227 10.9198 5.90426C10.8718 5.77626 10.8238 5.65626 10.7758 5.54427C10.7278 5.41627 10.6558 5.31226 10.5598 5.23226C10.4638 5.15227 10.3038 5.11227 10.0798 5.11227C9.47185 5.11227 8.86385 5.25627 8.25585 5.54427C7.66385 5.81627 7.10385 6.19227 6.57585 6.67227C6.06385 7.15227 5.61585 7.69627 5.23185 8.30427C4.84785 8.91227 4.53585 9.53627 4.29585 10.1763C4.07185 10.8163 3.95985 11.4403 3.95985 12.0483C3.95985 12.9443 4.15185 13.6083 4.53585 14.0403C4.91985 14.4723 5.46385 14.6883 6.16785 14.6883C6.93585 14.6883 7.67185 14.5683 8.37585 14.3283C9.09585 14.0723 9.77585 13.6963 10.4158 13.2003C11.0558 12.6883 11.6158 12.0563 12.0958 11.3043C12.3998 10.8883 12.7278 10.6083 13.0798 10.4643C13.4478 10.3043 13.8878 10.2243 14.3998 10.2243C14.7998 10.2243 15.0878 10.2963 15.2638 10.4403C15.4558 10.5683 15.5518 10.7843 15.5518 11.0883C15.5518 12.2083 15.5838 13.1523 15.6478 13.9203C15.7278 14.6723 15.8478 15.3283 16.0078 15.8883C16.1678 16.4483 16.3758 17.0003 16.6318 17.5443C16.8078 17.9123 16.9358 18.2003 17.0158 18.4083C17.0958 18.6323 17.1518 18.8163 17.1838 18.9603C17.2158 19.1203 17.2318 19.2883 17.2318 19.4643C17.2318 19.8963 17.0958 20.2243 16.8238 20.4483C16.5678 20.6883 16.2318 20.8083 15.8158 20.8083ZM8.87985 12.0483C8.36785 12.0483 7.91985 11.8803 7.53585 11.5443C7.16785 11.1923 6.98385 10.7523 6.98385 10.2243C6.98385 9.85627 7.08785 9.56027 7.29585 9.33627C7.51985 9.11227 7.94385 8.91227 8.56785 8.73626C9.54385 8.44827 10.5758 8.22427 11.6638 8.06427C12.7678 7.90427 13.9758 7.81627 15.2878 7.80026C16.0078 7.80026 16.5438 7.85626 16.8958 7.96826C17.2478 8.08026 17.4878 8.24827 17.6158 8.47227C17.7438 8.69627 17.8078 8.96827 17.8078 9.28826C17.8078 9.81627 17.6478 10.2883 17.3278 10.7043C17.0238 11.1203 16.5198 11.3283 15.8158 11.3283C14.4718 11.3283 13.3678 11.3843 12.5038 11.4963C11.6398 11.6083 10.9278 11.7283 10.3678 11.8563C9.80785 11.9843 9.31185 12.0483 8.87985 12.0483ZM27.7815 24.3123C26.3575 24.3123 25.1975 24.1923 24.3015 23.9523C23.4215 23.7123 22.7415 23.4083 22.2615 23.0403C21.7815 22.6723 21.4455 22.2723 21.2535 21.8403C21.0775 21.4083 20.9895 21.0003 20.9895 20.6163C20.9895 20.0083 21.1655 19.4803 21.5175 19.0323C21.8695 18.6003 22.3335 18.3843 22.9095 18.3843C23.3095 18.3843 23.5895 18.4643 23.7495 18.6243C23.9255 18.7843 24.0135 19.0083 24.0135 19.2963C24.0135 19.5683 24.1175 19.8163 24.3255 20.0403C24.5495 20.2803 24.9255 20.4643 25.4535 20.5923C25.9815 20.7363 26.6775 20.8083 27.5415 20.8083C28.3095 20.8083 28.8375 20.6163 29.1255 20.2323C29.4135 19.8643 29.5575 19.3203 29.5575 18.6003C29.5575 17.9923 29.5175 17.4483 29.4375 16.9683C29.3575 16.4723 29.2615 16.0003 29.1495 15.5523C29.0375 15.0883 28.9255 14.6083 28.8135 14.1123C28.7015 13.6003 28.6055 13.0403 28.5255 12.4323L29.9175 12.6243C29.7095 13.4243 29.3895 14.0963 28.9575 14.6403C28.5415 15.1843 28.0615 15.6243 27.5175 15.9603C26.9735 16.2803 26.4135 16.5123 25.8375 16.6563C25.2615 16.7843 24.7015 16.8483 24.1575 16.8483C23.1175 16.8483 22.2215 16.6643 21.4695 16.2963C20.7335 15.9283 20.1575 15.3923 19.7415 14.6883C19.3415 13.9843 19.1415 13.1363 19.1415 12.1443C19.1415 11.2163 19.3175 10.3523 19.6695 9.55227C20.0215 8.75226 20.4935 8.05626 21.0855 7.46426C21.6935 6.85627 22.3895 6.38426 23.1735 6.04826C23.9575 5.69627 24.7815 5.52027 25.6455 5.52027C26.5095 5.52027 27.1975 5.67227 27.7095 5.97627C28.2215 6.28027 28.5815 6.66427 28.7895 7.12826C29.0135 7.59227 29.1255 8.08027 29.1255 8.59227C29.1255 8.99227 29.0375 9.32027 28.8615 9.57627C28.6855 9.83227 28.5015 9.96026 28.3095 9.96026C28.0855 9.96026 27.9015 9.91227 27.7575 9.81627C27.6295 9.72027 27.5015 9.60827 27.3735 9.48027C27.2455 9.35227 27.0855 9.24027 26.8935 9.14427C26.7175 9.04827 26.4775 9.00027 26.1735 9.00027C25.7735 9.00027 25.3735 9.08827 24.9735 9.26427C24.5735 9.42427 24.2055 9.64827 23.8695 9.93627C23.5495 10.2083 23.2855 10.5203 23.0775 10.8723C22.8695 11.2083 22.7655 11.5523 22.7655 11.9043C22.7655 12.3043 22.8775 12.6163 23.1015 12.8403C23.3415 13.0643 23.6935 13.1763 24.1575 13.1763C24.9895 13.1763 25.7255 13.0003 26.3655 12.6483C27.0055 12.2963 27.5095 11.7603 27.8775 11.0403C28.2615 10.3043 28.4535 9.38427 28.4535 8.28027C28.4535 7.80027 28.5255 7.44827 28.6695 7.22427C28.8295 7.00027 29.1015 6.88827 29.4855 6.88827C29.9975 6.88827 30.4135 6.98427 30.7335 7.17627C31.0535 7.35227 31.3015 7.59227 31.4775 7.89627C31.6535 8.18427 31.7495 8.48827 31.7655 8.80827C31.8455 9.75227 31.9655 10.6003 32.1255 11.3523C32.2855 12.1043 32.4455 12.8403 32.6055 13.5603C32.7655 14.2643 32.9015 15.0323 33.0135 15.8643C33.1415 16.6963 33.2055 17.6723 33.2055 18.7923C33.2055 20.5043 32.7335 21.8483 31.7895 22.8243C30.8455 23.8163 29.5095 24.3123 27.7815 24.3123ZM37.5846 18.3123C37.1046 18.3123 36.7206 18.2083 36.4326 18.0003C36.1446 17.7923 35.9286 17.5123 35.7846 17.1603C35.6566 16.7923 35.5926 16.3843 35.5926 15.9363C35.5926 14.8963 35.5846 14.0243 35.5686 13.3203C35.5526 12.6003 35.5366 11.9763 35.5206 11.4483C35.5206 10.9203 35.5126 10.4243 35.4966 9.96026C35.4806 9.49627 35.4726 9.00027 35.4726 8.47227C35.4726 7.97627 35.5526 7.52027 35.7126 7.10427C35.8726 6.68827 36.1286 6.36027 36.4806 6.12027C36.8486 5.88027 37.3126 5.76027 37.8726 5.76027C38.4326 5.76027 38.8726 5.94427 39.1926 6.31227C39.5126 6.66427 39.6806 7.21626 39.6966 7.96826C39.6966 8.28826 39.6886 8.72827 39.6726 9.28826C39.6726 9.84826 39.6566 10.4723 39.6246 11.1603C39.6086 11.8323 39.5846 12.5123 39.5526 13.2003C39.5366 13.8723 39.5206 14.4963 39.5046 15.0723C39.4886 15.6483 39.4806 16.1123 39.4806 16.4643C39.4806 16.9923 39.3286 17.4323 39.0246 17.7843C38.7206 18.1363 38.2406 18.3123 37.5846 18.3123ZM37.8726 4.22427C37.0566 4.22427 36.4006 4.01626 35.9046 3.60026C35.4086 3.16826 35.1606 2.64826 35.1606 2.04026C35.1606 1.38426 35.3766 0.880265 35.8086 0.528265C36.2566 0.176265 36.8246 0.000265121 37.5126 0.000265121C38.0566 0.000265121 38.5126 0.120265 38.8806 0.360265C39.2486 0.600265 39.5286 0.896265 39.7206 1.24826C39.9286 1.60027 40.0326 1.95227 40.0326 2.30427C40.0326 2.76827 39.8646 3.20826 39.5286 3.62426C39.2086 4.02426 38.6566 4.22427 37.8726 4.22427ZM46.1457 18.3123C45.3137 18.3123 44.5857 18.1603 43.9617 17.8563C43.3377 17.5363 42.8497 17.0963 42.4977 16.5363C42.1457 15.9603 41.9697 15.2963 41.9697 14.5443C41.9697 13.7283 42.1057 12.8963 42.3777 12.0483C42.6497 11.2003 43.0257 10.3923 43.5057 9.62426C43.9857 8.85627 44.5377 8.16827 45.1617 7.56027C45.8017 6.95227 46.4817 6.47227 47.2017 6.12027C47.9217 5.76826 48.6497 5.59226 49.3857 5.59226C49.9777 5.59226 50.4817 5.78426 50.8977 6.16827C51.3137 6.55226 51.5217 7.09626 51.5217 7.80026C51.5217 8.05626 51.4497 8.25626 51.3057 8.40026C51.1617 8.54427 50.9777 8.64026 50.7537 8.68826C49.7297 8.84827 48.8257 9.24827 48.0417 9.88827C47.2577 10.5123 46.6417 11.2643 46.1937 12.1443C45.7457 13.0083 45.5217 13.9123 45.5217 14.8563C45.5217 15.1283 45.5377 15.3843 45.5697 15.6243C45.6177 15.8483 45.7057 16.1363 45.8337 16.4883L44.2017 14.0403C44.5857 14.3283 44.9217 14.5283 45.2097 14.6403C45.5137 14.7363 45.8657 14.7843 46.2657 14.7843C47.0817 14.7843 47.8417 14.2803 48.5457 13.2723C49.2497 12.2483 49.7537 10.7523 50.0577 8.78427C50.1057 8.40027 50.2737 8.10427 50.5617 7.89627C50.8497 7.67227 51.1777 7.56027 51.5457 7.56027C52.1697 7.56027 52.6977 7.72827 53.1297 8.06427C53.5617 8.40026 53.8657 8.81627 54.0417 9.31227C54.3137 10.0483 54.5617 10.7363 54.7857 11.3763C55.0257 12.0003 55.3057 12.6083 55.6257 13.2003C55.9617 13.7763 56.4097 14.3763 56.9697 15.0003C57.1777 15.2403 57.2817 15.5443 57.2817 15.9123C57.2977 16.2643 57.2337 16.6243 57.0897 16.9923C56.9457 17.3443 56.7297 17.6403 56.4417 17.8803C56.1697 18.1203 55.8337 18.2403 55.4337 18.2403C55.1457 18.2403 54.9137 18.1843 54.7377 18.0723C54.5617 17.9763 54.4097 17.8483 54.2817 17.6883C53.9297 17.2723 53.6177 16.8643 53.3457 16.4643C53.0737 16.0483 52.8177 15.6163 52.5777 15.1683C52.3537 14.7043 52.1377 14.1923 51.9297 13.6323C51.7377 13.0563 51.5377 12.3923 51.3297 11.6403L52.6017 11.5443C52.2977 12.8243 51.9057 13.8963 51.4257 14.7603C50.9457 15.6243 50.4177 16.3203 49.8417 16.8483C49.2817 17.3763 48.6817 17.7523 48.0417 17.9763C47.4177 18.2003 46.7857 18.3123 46.1457 18.3123Z" fill="#03838C"/>
</svg>
