<svg width="28" height="28" viewBox="0 0 28 28" fill="none" xmlns="http://www.w3.org/2000/svg">
<rect width="28" height="28" rx="7.53846" fill="#E6F4F1"/>
<rect x="0.269231" y="0.269231" width="27.4615" height="27.4615" rx="7.26923" stroke="#03838C" stroke-opacity="0.25" stroke-width="0.538462"/>
<path d="M10.7021 16.8281C10.9104 16.6201 11.2537 16.62 11.4619 16.8281C11.6701 17.0363 11.67 17.3797 11.4619 17.5879L9.71191 19.3379C9.60471 19.4451 9.4679 19.4961 9.33203 19.4961C9.19611 19.4961 9.05939 19.4451 8.95215 19.3379L8.36914 18.7549C8.16092 18.5467 8.16092 18.2033 8.36914 17.9951C8.57738 17.7871 8.92074 17.787 9.12891 17.9951L9.33105 18.1982L10.7021 16.8281ZM19.249 17.8369C19.5432 17.8372 19.7861 18.0808 19.7861 18.375C19.786 18.6692 19.5432 18.9118 19.249 18.9121H13.415C13.1208 18.912 12.878 18.6693 12.8779 18.375C12.8779 18.0807 13.1207 17.837 13.415 17.8369H19.249ZM10.7021 12.7451C10.9104 12.5369 11.2537 12.5369 11.4619 12.7451C11.67 12.9534 11.6701 13.2967 11.4619 13.5049L9.71191 15.2549C9.60471 15.3621 9.4679 15.4121 9.33203 15.4121C9.19617 15.4121 9.05937 15.362 8.95215 15.2549L8.36914 14.6719C8.16092 14.4637 8.16092 14.1203 8.36914 13.9121C8.57736 13.7039 8.92069 13.7039 9.12891 13.9121L9.33105 14.1143L10.7021 12.7451ZM19.249 13.7539C19.5432 13.7542 19.7861 13.9978 19.7861 14.292C19.7859 14.586 19.543 14.8288 19.249 14.8291H13.415C13.1209 14.829 12.8782 14.5861 12.8779 14.292C12.8779 13.9977 13.1207 13.754 13.415 13.7539H19.249ZM10.7021 8.66211C10.9104 8.45389 11.2537 8.45389 11.4619 8.66211C11.6698 8.87036 11.67 9.21376 11.4619 9.42188L9.71191 11.1719C9.60474 11.279 9.46783 11.3291 9.33203 11.3291C9.19624 11.3291 9.05934 11.2789 8.95215 11.1719L8.36914 10.5879C8.16092 10.3797 8.16092 10.0363 8.36914 9.82812C8.57739 9.62023 8.9208 9.62001 9.12891 9.82812L9.33105 10.0312L10.7021 8.66211ZM19.249 9.6709C19.5431 9.67116 19.786 9.91385 19.7861 10.208C19.7861 10.5022 19.5432 10.7458 19.249 10.7461H13.415C13.1207 10.746 12.8779 10.5023 12.8779 10.208C12.878 9.91375 13.1208 9.67099 13.415 9.6709H19.249Z" fill="#03838C" stroke="#03838C" stroke-width="0.2"/>
</svg>
