<svg width="32" height="32" viewBox="0 0 32 32" fill="none" xmlns="http://www.w3.org/2000/svg">
<g clip-path="url(#clip0_623_907)">
<rect width="32" height="32" rx="4" fill="#03838C" fill-opacity="0.2"/>
<path d="M16 15.1504C17.539 15.1504 19.0645 16.0633 20.2012 17.3965C21.3386 18.7308 22.0996 20.5004 22.0996 22.2402C22.0996 23.2923 21.5734 24.1469 21.04 24.5039C20.7253 24.7145 20.4508 24.8651 20.1367 24.9619C19.8229 25.0586 19.4748 25.0996 19.0137 25.0996C18.4597 25.0996 18.1003 25.0029 17.8125 24.8584C17.6699 24.7868 17.5468 24.7047 17.4297 24.6211C17.3108 24.5363 17.2018 24.4533 17.0771 24.3711C16.7078 24.1277 16.4153 23.9375 16 23.9375C15.5847 23.9375 15.2922 24.1277 14.9229 24.3711C14.7982 24.4533 14.6892 24.5363 14.5703 24.6211C14.4532 24.7047 14.3301 24.7868 14.1875 24.8584C13.8997 25.0029 13.5403 25.0996 12.9863 25.0996C12.5252 25.0996 12.1771 25.0586 11.8633 24.9619C11.5492 24.8651 11.2747 24.7145 10.96 24.5039C10.4266 24.1469 9.90039 23.2923 9.90039 22.2402C9.90043 20.5004 10.6614 18.7308 11.7988 17.3965C12.9355 16.0633 14.461 15.1504 16 15.1504ZM16 16.0996C15.4143 16.0996 14.8052 16.2778 14.1885 16.623C13.5905 16.9579 13.0074 17.4502 12.5039 18.0479C11.4665 19.2791 10.8497 20.8481 10.8496 22.2402C10.8496 22.974 11.2285 23.4831 11.4639 23.6406C11.7179 23.8106 11.912 23.919 12.1328 23.9863C12.354 24.0537 12.6089 24.082 12.9863 24.082C13.3123 24.082 13.5175 24.0451 13.6797 23.9824C13.7612 23.9509 13.8337 23.9126 13.9072 23.8662L14.4248 23.5039C14.8279 23.2382 15.3085 22.919 16 22.9189C16.6915 22.9189 17.1721 23.2382 17.5752 23.5039L18.0928 23.8662C18.1663 23.9126 18.2388 23.9509 18.3203 23.9824C18.4825 24.0451 18.6877 24.082 19.0137 24.082C19.3911 24.082 19.6461 24.0537 19.8672 23.9863C20.088 23.919 20.2821 23.8106 20.5361 23.6406C20.7714 23.4831 21.1504 22.974 21.1504 22.2402C21.1503 20.8481 20.5335 19.279 19.4961 18.0479C18.9926 17.4502 18.4095 16.9579 17.8115 16.623C17.1948 16.2778 16.5857 16.0996 16 16.0996ZM8.83691 11.7754C9.83684 11.7756 10.8165 12.6984 11.3037 14.0176C11.6068 14.8392 11.672 15.6574 11.5234 16.3359C11.3749 17.0143 11.0097 17.5616 10.4463 17.8193C10.2212 17.9224 9.98024 17.9746 9.73047 17.9746C8.71907 17.9746 7.7187 17.1319 7.21973 15.916C6.84143 14.9926 6.79423 13.9518 7.10156 13.1289C7.31438 12.5594 7.67608 12.1381 8.15332 11.9229C8.37163 11.8246 8.60243 11.7754 8.83691 11.7754ZM23.1631 11.7754C23.3974 11.7754 23.6276 11.8248 23.8457 11.9229H23.8467C24.3239 12.1381 24.6856 12.5594 24.8984 13.1289C25.2058 13.9518 25.1585 14.9926 24.7803 15.916C24.2813 17.1319 23.2809 17.9746 22.2695 17.9746C22.0197 17.9746 21.7787 17.9224 21.5537 17.8193C20.9903 17.5616 20.6251 17.0143 20.4766 16.3359C20.328 15.6574 20.3932 14.8392 20.6963 14.0176C21.1835 12.6984 22.1632 11.7757 23.1631 11.7754ZM8.84961 12.7812C8.7464 12.7812 8.64409 12.8028 8.5459 12.8467C8.25999 12.9742 8.09697 13.2549 8.00977 13.4824C7.79072 14.0542 7.82556 14.8118 8.11328 15.5068C8.29155 15.9368 8.55275 16.2994 8.84473 16.5537C9.13766 16.8088 9.45543 16.9492 9.74902 16.9492C9.86685 16.9492 9.9783 16.9255 10.0811 16.8789C10.3684 16.7488 10.5665 16.4245 10.6357 15.9678C10.7046 15.5138 10.6419 14.9481 10.4277 14.373C10.2498 13.8967 9.99415 13.4955 9.71094 13.2148C9.42631 12.9328 9.12346 12.7814 8.84961 12.7812ZM23.1504 12.7812C22.8765 12.7814 22.5737 12.9328 22.2891 13.2148C22.0059 13.4954 21.7492 13.8959 21.5713 14.3721C21.3572 14.9471 21.2954 15.5138 21.3643 15.9678C21.4335 16.4245 21.6316 16.7488 21.9189 16.8789C22.0218 16.9255 22.1331 16.9492 22.251 16.9492C22.5446 16.9492 22.8623 16.8088 23.1553 16.5537C23.4472 16.2994 23.7085 15.9367 23.8867 15.5068C24.1745 14.8117 24.2085 14.0542 23.9893 13.4824C23.9021 13.2549 23.74 12.9742 23.4541 12.8467C23.3559 12.8028 23.2536 12.7812 23.1504 12.7812ZM13.1348 6.90039C13.7972 6.92931 14.3681 7.29297 14.7939 7.86816C15.2193 8.44288 15.5038 9.23275 15.5986 10.1299C15.7142 11.2149 15.5819 12.292 15.0664 13.0342L14.958 13.1777C14.5841 13.6369 14.1037 13.9122 13.5684 13.9648C13.4776 13.9738 13.3846 13.9757 13.293 13.9717C12.6121 13.942 11.9766 13.5548 11.4912 12.9609C11.0053 12.3664 10.6635 11.5577 10.5693 10.666C10.4549 9.58807 10.7364 8.50722 11.332 7.77539C11.7437 7.26975 12.2685 6.96675 12.8506 6.90918H12.8516C12.9011 6.90449 12.9716 6.90254 13.0273 6.90137C13.0557 6.90077 13.0812 6.90056 13.0996 6.90039H13.1348ZM18.8789 6.99805L18.8818 6.90039H18.8906C18.8962 6.90057 18.9042 6.90103 18.9141 6.90137C18.9342 6.90206 18.9625 6.903 18.9932 6.9043C19.0536 6.90685 19.1283 6.91039 19.1768 6.91504C19.7585 6.97254 20.2649 7.26071 20.6768 7.7666C21.2724 8.49848 21.554 9.58012 21.4395 10.6582C21.3452 11.5498 21.0035 12.3587 20.5176 12.9531C20.0321 13.5469 19.3966 13.9333 18.7158 13.9629C18.6242 13.9669 18.5313 13.9651 18.4404 13.9561C17.972 13.91 17.5461 13.693 17.1963 13.332L17.0508 13.1689C16.4461 12.4263 16.287 11.2783 16.4102 10.1211C16.505 9.22402 16.7895 8.43683 17.2148 7.86426C17.6408 7.29094 18.2118 6.92935 18.874 6.90039L18.8818 6.89941L18.8789 6.99805ZM12.9473 7.86621C12.5586 7.90459 12.2715 8.15461 12.0947 8.36816C11.6573 8.8974 11.4431 9.71844 11.5332 10.5664C11.6031 11.2288 11.8457 11.8358 12.1777 12.2793C12.5111 12.7244 12.9248 12.9939 13.335 13.0117C13.3806 13.0136 13.4262 13.0122 13.4717 13.0078L13.5703 12.9932C13.7975 12.9458 14.0078 12.8111 14.1963 12.583C14.6238 12.066 14.7347 11.1686 14.6348 10.2305C14.5639 9.5585 14.3717 8.96937 14.0977 8.54688C13.8233 8.12384 13.4757 7.87899 13.0928 7.8623L12.9473 7.86621ZM18.916 7.85352C18.5331 7.87029 18.1855 8.11513 17.9111 8.53809C17.6371 8.96059 17.4449 9.54972 17.374 10.2217C17.2741 11.1598 17.3852 12.0571 17.8125 12.5742C18.0278 12.8347 18.2722 12.973 18.5371 12.999C18.5825 13.0034 18.6282 13.0049 18.6738 13.0029C19.0842 12.9851 19.4986 12.7159 19.832 12.2705C20.164 11.827 20.4066 11.22 20.4766 10.5576C20.5665 9.70969 20.3515 8.88856 19.9141 8.35938C19.7372 8.1458 19.4501 7.89573 19.0615 7.85742C19.0132 7.85259 18.9645 7.85147 18.916 7.85352Z" fill="#03838C" stroke="#03838C" stroke-width="0.2"/>
</g>
<defs>
<clipPath id="clip0_623_907">
<rect width="32" height="32" fill="white"/>
</clipPath>
</defs>
</svg>
