<svg width="40" height="40" viewBox="0 0 40 40" fill="none" xmlns="http://www.w3.org/2000/svg">
<rect width="40" height="40" rx="10.7692" fill="#E6F4F1"/>
<rect x="0.384615" y="0.384615" width="39.2308" height="39.2308" rx="10.3846" stroke="#03838C" stroke-opacity="0.25" stroke-width="0.769231"/>
<path d="M18.2417 25.396C19.5583 25.396 20.6292 24.3251 20.6292 23.0085V21.7293C20.6292 20.4126 19.5583 19.3418 18.2417 19.3418H16.975C16.6292 19.3418 16.35 19.621 16.35 19.9668V24.771C16.35 25.1168 16.6292 25.396 16.975 25.396H18.2417ZM17.6 20.5918H18.2417C18.8708 20.5918 19.3792 21.1043 19.3792 21.7293V23.0085C19.3792 23.6376 18.8667 24.146 18.2417 24.146H17.6V20.5918ZM15.5833 21.3418C15.5833 20.2751 14.5917 19.3418 13.4583 19.3418H12.1875C11.8417 19.3418 11.5625 19.621 11.5625 19.9668V22.7168V24.7668C11.5625 25.1126 11.8417 25.3918 12.1875 25.3918C12.5333 25.3918 12.8125 25.1126 12.8125 24.7668V23.3418H13.5792C14.6833 23.346 15.5833 22.446 15.5833 21.3418ZM12.8125 20.5918H13.4542C13.8958 20.5918 14.3292 20.9626 14.3292 21.3418C14.3292 21.7543 13.9917 22.0918 13.5792 22.0918H12.8125V20.5918Z" fill="#03838C"/>
<path d="M14.8116 29.7923H26.5449C27.5866 29.7923 28.4366 28.9423 28.4366 27.9007V15.8257C28.4366 15.784 28.4324 15.7423 28.4241 15.7007C28.4199 15.6757 28.4116 15.6548 28.4033 15.6298C28.3991 15.6132 28.3949 15.5965 28.3908 15.584C28.3824 15.559 28.3658 15.5382 28.3533 15.5173C28.3449 15.5048 28.3408 15.4882 28.3324 15.4757C28.3158 15.4507 28.2949 15.4257 28.2741 15.4048C28.2658 15.3965 28.2616 15.3882 28.2533 15.3798L23.2616 10.3923C23.2574 10.3882 23.2491 10.384 23.2408 10.3757C23.2158 10.3548 23.1908 10.334 23.1658 10.3132C23.1533 10.3048 23.1408 10.3007 23.1283 10.2923C23.1033 10.2798 23.0824 10.2632 23.0574 10.2548C23.0449 10.2507 23.0283 10.2465 23.0158 10.2423C22.9908 10.234 22.9658 10.2257 22.9408 10.2215C22.8991 10.2132 22.8574 10.209 22.8158 10.209H14.8116C13.7699 10.209 12.9199 11.0548 12.9199 12.1007V17.4715C12.9199 17.8173 13.1991 18.0965 13.5449 18.0965C13.8908 18.0965 14.1699 17.8173 14.1699 17.4715V12.1007C14.1699 11.7465 14.4574 11.459 14.8116 11.459H22.1949V14.709C22.1949 15.6673 22.9741 16.4507 23.9366 16.4507H27.1866V27.9007C27.1866 28.2548 26.8991 28.5423 26.5449 28.5423H14.8116C14.4574 28.5423 14.1699 28.2548 14.1699 27.9007V27.2715C14.1699 26.9257 13.8908 26.6465 13.5449 26.6465C13.1991 26.6465 12.9199 26.9257 12.9199 27.2715V27.9007C12.9241 28.9423 13.7699 29.7923 14.8116 29.7923ZM23.4449 14.709V12.3423L26.2991 15.2007H23.9324C23.6658 15.2007 23.4449 14.984 23.4449 14.709Z" fill="#03838C"/>
<path d="M24.8125 20.5918C25.1583 20.5918 25.4375 20.3126 25.4375 19.9668C25.4375 19.621 25.1583 19.3418 24.8125 19.3418H22C21.6542 19.3418 21.375 19.621 21.375 19.9668V24.771C21.375 25.1168 21.6542 25.396 22 25.396C22.3458 25.396 22.625 25.1168 22.625 24.771V22.996H24.2833C24.6292 22.996 24.9083 22.7168 24.9083 22.371C24.9083 22.0251 24.6292 21.746 24.2833 21.746H22.625V20.596H24.8125V20.5918Z" fill="#03838C"/>
</svg>
