<svg width="28" height="28" viewBox="0 0 28 28" fill="none" xmlns="http://www.w3.org/2000/svg">
<rect width="28" height="28" rx="14" fill="#03838C"/>
<path d="M17.0625 20.125H10.9375C9.73 20.125 8.75 19.145 8.75 17.9375V10.0625C8.75 8.855 9.73 7.875 10.9375 7.875H17.0625C18.27 7.875 19.25 8.855 19.25 10.0625V17.9375C19.25 19.145 18.27 20.125 17.0625 20.125ZM10.9375 8.75C10.2156 8.75 9.625 9.34063 9.625 10.0625V17.9375C9.625 18.6594 10.2156 19.25 10.9375 19.25H17.0625C17.7844 19.25 18.375 18.6594 18.375 17.9375V10.0625C18.375 9.34063 17.7844 8.75 17.0625 8.75H10.9375Z" fill="white"/>
<path d="M16.625 14.4375H11.375C11.1344 14.4375 10.9375 14.2406 10.9375 14C10.9375 13.7594 11.1344 13.5625 11.375 13.5625H16.625C16.8656 13.5625 17.0625 13.7594 17.0625 14C17.0625 14.2406 16.8656 14.4375 16.625 14.4375ZM14 11.8125H11.375C11.1344 11.8125 10.9375 11.6156 10.9375 11.375C10.9375 11.1344 11.1344 10.9375 11.375 10.9375H14C14.2406 10.9375 14.4375 11.1344 14.4375 11.375C14.4375 11.6156 14.2406 11.8125 14 11.8125ZM16.625 17.0625H11.375C11.1344 17.0625 10.9375 16.8656 10.9375 16.625C10.9375 16.3844 11.1344 16.1875 11.375 16.1875H16.625C16.8656 16.1875 17.0625 16.3844 17.0625 16.625C17.0625 16.8656 16.8656 17.0625 16.625 17.0625Z" fill="white"/>
</svg>
