<svg width="28" height="28" viewBox="0 0 28 28" fill="none" xmlns="http://www.w3.org/2000/svg">
<rect width="28" height="28" rx="7.53846" fill="#E6F4F1"/>
<rect x="0.269231" y="0.269231" width="27.4615" height="27.4615" rx="7.26923" stroke="#03838C" stroke-opacity="0.25" stroke-width="0.538462"/>
<path d="M10.9252 18.491C11.4035 17.9777 12.1327 18.0185 12.5527 18.5785L13.1418 19.366C13.6143 19.9902 14.3785 19.9902 14.851 19.366L15.4402 18.5785C15.8602 18.0185 16.5893 17.9777 17.0677 18.491C18.106 19.5993 18.9518 19.2318 18.9518 17.6802V11.106C18.9577 8.75518 18.4093 8.16602 16.2043 8.16602H11.7943C9.58935 8.16602 9.04102 8.75518 9.04102 11.106V17.6743C9.04102 19.2318 9.89268 19.5935 10.9252 18.491Z" stroke="#03838C" stroke-linecap="round" stroke-linejoin="round"/>
<path d="M11.666 11.084H16.3327" stroke="#03838C" stroke-linecap="round" stroke-linejoin="round"/>
<path d="M12.25 13.416H15.75" stroke="#03838C" stroke-linecap="round" stroke-linejoin="round"/>
</svg>
