<svg width="26" height="26" viewBox="0 0 26 26" fill="none" xmlns="http://www.w3.org/2000/svg">
<path d="M15.7474 23.4931C15.7886 23.5957 15.8602 23.6832 15.9525 23.744C16.0448 23.8047 16.1535 23.8358 16.264 23.8329C16.3745 23.8301 16.4815 23.7935 16.5706 23.7282C16.6597 23.6628 16.7267 23.5717 16.7625 23.4671L23.8042 2.88381C23.8389 2.78782 23.8455 2.68394 23.8233 2.58433C23.8011 2.48472 23.7509 2.39349 23.6788 2.32132C23.6066 2.24915 23.5154 2.19903 23.4158 2.17682C23.3162 2.15461 23.2123 2.16123 23.1163 2.1959L2.53295 9.23756C2.4284 9.27342 2.33733 9.34039 2.27194 9.4295C2.20656 9.51861 2.17 9.62558 2.16717 9.73607C2.16434 9.84655 2.19538 9.95526 2.25611 10.0476C2.31685 10.1399 2.40437 10.2115 2.50695 10.2526L11.0978 13.6976C11.3694 13.8064 11.6161 13.969 11.8231 14.1756C12.0302 14.3823 12.1932 14.6288 12.3024 14.9001L15.7474 23.4931Z" stroke="#03838C" stroke-width="2" stroke-linecap="round" stroke-linejoin="round"/>
<path d="M23.6749 2.32593L11.8232 14.1765" stroke="#03838C" stroke-width="2" stroke-linecap="round" stroke-linejoin="round"/>
</svg>
