<svg width="26" height="26" viewBox="0 0 26 26" fill="none" xmlns="http://www.w3.org/2000/svg">
<path d="M17.3337 22.75V20.5833C17.3337 19.4341 16.8771 18.3319 16.0645 17.5192C15.2518 16.7065 14.1496 16.25 13.0003 16.25H6.50033C5.35105 16.25 4.24885 16.7065 3.4362 17.5192C2.62354 18.3319 2.16699 19.4341 2.16699 20.5833V22.75" stroke="#03838C" stroke-width="2" stroke-linecap="round" stroke-linejoin="round"/>
<path d="M9.75033 11.9167C12.1436 11.9167 14.0837 9.97657 14.0837 7.58333C14.0837 5.1901 12.1436 3.25 9.75033 3.25C7.35709 3.25 5.41699 5.1901 5.41699 7.58333C5.41699 9.97657 7.35709 11.9167 9.75033 11.9167Z" stroke="#03838C" stroke-width="2" stroke-linecap="round" stroke-linejoin="round"/>
<path d="M17.333 11.9167L19.4997 14.0833L23.833 9.75" stroke="#03838C" stroke-width="2" stroke-linecap="round" stroke-linejoin="round"/>
</svg>
