<svg width="26" height="26" viewBox="0 0 26 26" fill="none" xmlns="http://www.w3.org/2000/svg">
<path d="M16.2497 2.16663H6.49967C5.92504 2.16663 5.37394 2.3949 4.96761 2.80123C4.56128 3.20756 4.33301 3.75866 4.33301 4.33329V21.6666C4.33301 22.2413 4.56128 22.7924 4.96761 23.1987C5.37394 23.605 5.92504 23.8333 6.49967 23.8333H19.4997C20.0743 23.8333 20.6254 23.605 21.0317 23.1987C21.4381 22.7924 21.6663 22.2413 21.6663 21.6666V7.58329L16.2497 2.16663Z" stroke="#03838C" stroke-width="2" stroke-linecap="round" stroke-linejoin="round"/>
<path d="M15.167 2.16663V6.49996C15.167 7.0746 15.3953 7.6257 15.8016 8.03202C16.2079 8.43835 16.759 8.66663 17.3337 8.66663H21.667" stroke="#03838C" stroke-width="2" stroke-linecap="round" stroke-linejoin="round"/>
<path d="M9.75 16.25L11.9167 18.4167L16.25 14.0834" stroke="#03838C" stroke-width="2" stroke-linecap="round" stroke-linejoin="round"/>
</svg>
