<svg width="26" height="26" viewBox="0 0 26 26" fill="none" xmlns="http://www.w3.org/2000/svg">
<path d="M19.4997 4.33337H6.49967C5.30306 4.33337 4.33301 5.30342 4.33301 6.50004V19.5C4.33301 20.6967 5.30306 21.6667 6.49967 21.6667H19.4997C20.6963 21.6667 21.6663 20.6967 21.6663 19.5V6.50004C21.6663 5.30342 20.6963 4.33337 19.4997 4.33337Z" stroke="#03838C" stroke-width="2" stroke-linecap="round" stroke-linejoin="round"/>
<path d="M15.1667 9.75H10.8333C10.235 9.75 9.75 10.235 9.75 10.8333V15.1667C9.75 15.765 10.235 16.25 10.8333 16.25H15.1667C15.765 16.25 16.25 15.765 16.25 15.1667V10.8333C16.25 10.235 15.765 9.75 15.1667 9.75Z" stroke="#03838C" stroke-width="2" stroke-linecap="round" stroke-linejoin="round"/>
<path d="M16.25 2.16663V4.33329" stroke="#03838C" stroke-width="2" stroke-linecap="round" stroke-linejoin="round"/>
<path d="M16.25 21.6666V23.8333" stroke="#03838C" stroke-width="2" stroke-linecap="round" stroke-linejoin="round"/>
<path d="M2.16699 16.25H4.33366" stroke="#03838C" stroke-width="2" stroke-linecap="round" stroke-linejoin="round"/>
<path d="M2.16699 9.75H4.33366" stroke="#03838C" stroke-width="2" stroke-linecap="round" stroke-linejoin="round"/>
<path d="M21.667 16.25H23.8337" stroke="#03838C" stroke-width="2" stroke-linecap="round" stroke-linejoin="round"/>
<path d="M21.667 9.75H23.8337" stroke="#03838C" stroke-width="2" stroke-linecap="round" stroke-linejoin="round"/>
<path d="M9.75 2.16663V4.33329" stroke="#03838C" stroke-width="2" stroke-linecap="round" stroke-linejoin="round"/>
<path d="M9.75 21.6666V23.8333" stroke="#03838C" stroke-width="2" stroke-linecap="round" stroke-linejoin="round"/>
</svg>
