<svg width="24" height="24" viewBox="0 0 24 24" fill="none" xmlns="http://www.w3.org/2000/svg">
<rect width="24" height="24" rx="6.85714" fill="#03838C"/>
<path d="M9.37506 17.594C9.37506 17.477 9.35256 17.4185 9.30756 17.4185L8.99706 17.567C8.99706 17.504 8.96106 17.459 8.88906 17.432L8.78106 17.4185C8.70906 17.4185 8.61906 17.45 8.51106 17.513C8.49306 17.468 8.47056 17.423 8.44356 17.378C8.41656 17.333 8.39406 17.2925 8.37606 17.2565C8.25906 17.0315 8.14206 16.784 8.02506 16.514C7.91706 16.235 7.81356 15.9695 7.71456 15.7175C7.62456 15.4655 7.55256 15.2675 7.49856 15.1235C7.46256 15.0065 7.42206 14.831 7.37706 14.597C7.33206 14.363 7.28706 14.066 7.24206 13.706C7.34106 13.769 7.41756 13.8005 7.47156 13.8005C7.53456 13.8005 7.59306 13.706 7.64706 13.517C7.67406 13.553 7.72356 13.571 7.79556 13.571C7.84956 13.571 7.89006 13.553 7.91706 13.517L8.13306 13.193L8.37606 13.274H8.38956C8.40756 13.274 8.42556 13.265 8.44356 13.247C8.46156 13.229 8.48856 13.211 8.52456 13.193C8.59656 13.148 8.65056 13.1255 8.68656 13.1255L8.72706 13.139C8.95206 13.247 9.09606 13.445 9.15906 13.733C9.32106 14.417 9.48306 14.759 9.64506 14.759C9.80706 14.759 9.99606 14.588 10.2121 14.246C10.3201 14.075 10.4281 13.877 10.5361 13.652C10.6531 13.427 10.7701 13.175 10.8871 12.896C10.9051 13.004 10.9231 13.058 10.9411 13.058C10.9861 13.058 11.0626 12.9455 11.1706 12.7205C11.2876 12.4955 11.4721 12.185 11.7241 11.789C11.8681 11.546 12.0481 11.2715 12.2641 10.9655C12.4891 10.6595 12.7276 10.3445 12.9796 10.0205C13.2316 9.6965 13.4746 9.3905 13.7086 9.1025C13.9516 8.8145 14.1676 8.567 14.3566 8.36C14.5456 8.153 14.6851 8.018 14.7751 7.955C15.1171 7.721 15.3871 7.496 15.5851 7.28C15.5761 7.343 15.5626 7.4015 15.5446 7.4555C15.5356 7.5005 15.5311 7.532 15.5311 7.55C15.5311 7.586 15.5491 7.604 15.5851 7.604L15.9631 7.415V7.469C15.9631 7.541 15.9811 7.577 16.0171 7.577C16.0441 7.577 16.0981 7.5365 16.1791 7.4555C16.2601 7.3745 16.3051 7.316 16.3141 7.28L16.2871 7.469L16.7461 7.199L16.6381 7.442C16.7821 7.343 16.8856 7.2935 16.9486 7.2935C16.9846 7.2935 17.0116 7.316 17.0296 7.361C17.0476 7.397 17.0566 7.433 17.0566 7.469C17.0566 7.523 17.0341 7.586 16.9891 7.658C16.9441 7.73 16.8856 7.8155 16.8136 7.9145C16.7596 7.9865 16.6696 8.0945 16.5436 8.2385C16.4266 8.3735 16.2466 8.576 16.0036 8.846C15.7606 9.107 15.4366 9.4715 15.0316 9.9395C14.9236 10.0565 14.7571 10.2635 14.5321 10.5605C14.3071 10.8485 14.0506 11.186 13.7626 11.573C13.4836 11.951 13.2046 12.3335 12.9256 12.7205C12.6466 13.1075 12.3991 13.4585 12.1831 13.7735C11.9671 14.0795 11.8141 14.309 11.7241 14.462L10.8871 15.8795C10.7071 16.1855 10.5586 16.4375 10.4416 16.6355C10.3246 16.8245 10.2346 16.955 10.1716 17.027C10.0366 17.189 9.88806 17.333 9.72606 17.459L9.60456 17.3915L9.49656 17.459L9.37506 17.594Z" fill="white"/>
</svg>
