<svg width="14" height="14" viewBox="0 0 14 14" fill="none" xmlns="http://www.w3.org/2000/svg">
<g clip-path="url(#clip0_564_1193)">
<path d="M12.8337 7.58398C12.679 7.58398 12.5307 7.64544 12.4213 7.75484C12.3119 7.86424 12.2504 8.01261 12.2504 8.16732V10.6249C12.2499 11.0559 12.0785 11.4692 11.7737 11.774C11.4689 12.0788 11.0557 12.2502 10.6247 12.2507H3.37616C2.94512 12.2502 2.53188 12.0788 2.22709 11.774C1.9223 11.4692 1.75087 11.0559 1.75041 10.6249V8.16732C1.75041 8.01261 1.68895 7.86424 1.57955 7.75484C1.47016 7.64544 1.32178 7.58398 1.16707 7.58398C1.01236 7.58398 0.863991 7.64544 0.754595 7.75484C0.645198 7.86424 0.58374 8.01261 0.58374 8.16732V10.6249C0.584512 11.3653 0.87896 12.0751 1.40247 12.5986C1.92599 13.1221 2.6358 13.4165 3.37616 13.4173H10.6247C11.365 13.4165 12.0748 13.1221 12.5983 12.5986C13.1219 12.0751 13.4163 11.3653 13.4171 10.6249V8.16732C13.4171 8.01261 13.3556 7.86424 13.2462 7.75484C13.1368 7.64544 12.9884 7.58398 12.8337 7.58398Z" fill="white"/>
<path d="M3.91241 5.07961L6.41666 2.57536V9.91719C6.41666 10.0719 6.47812 10.2203 6.58751 10.3297C6.69691 10.4391 6.84528 10.5005 6.99999 10.5005C7.1547 10.5005 7.30308 10.4391 7.41247 10.3297C7.52187 10.2203 7.58333 10.0719 7.58333 9.91719V2.57536L10.0876 5.07961C10.1976 5.18587 10.3449 5.24467 10.4979 5.24334C10.6508 5.24201 10.7972 5.18066 10.9053 5.0725C11.0135 4.96435 11.0748 4.81804 11.0761 4.66509C11.0775 4.51215 11.0187 4.36479 10.9124 4.25478L7.41241 0.754776C7.30302 0.645418 7.15467 0.583984 6.99999 0.583984C6.84531 0.583984 6.69697 0.645418 6.58758 0.754776L3.08758 4.25478C2.98132 4.36479 2.92252 4.51215 2.92385 4.66509C2.92518 4.81804 2.98653 4.96435 3.09468 5.0725C3.20284 5.18066 3.34914 5.24201 3.50209 5.24334C3.65504 5.24467 3.80239 5.18587 3.91241 5.07961Z" fill="white"/>
</g>
<defs>
<clipPath id="clip0_564_1193">
<rect width="14" height="14" fill="white"/>
</clipPath>
</defs>
</svg>
